# file generated by UVMapper
# NumVerts/NumTVerts/NumVNormals/NumFacets   100/140/174/192
# NumGroups/NumMaterials/NumRegions   2/2/0
# x/y/color/ppu   512/512/0/50.00000000

mtllib bush1.mtl

v  0.00000000  87.00980377 -37.16999817
v  35.35530090  63.69179916 -35.35530090
v  0.00000000  63.69179916 -50.00000000
v  26.28319931  87.00980377 -26.28319931
v  10.00599957  92.92279816 -10.00599957
v  0.00000000  92.92279816 -14.15060043
v -10.00599957  92.92279816 -10.00599957
v -26.28319931  87.00980377 -26.28319931
v -35.35530090  63.69179916 -35.35530090
v  0.00000000  23.05739975 -50.00000000
v -35.35530090  23.05739975 -35.35530090
v  0.00000000  4.66416979 -37.16999817
v -26.28319931  4.66416979 -26.28319931
v -10.00599957  0.00000000 -10.00599957
v  0.00000000  0.00000000 -14.15060043
v  26.28319931  4.66416979 -26.28319931
v  10.00599957  0.00000000 -10.00599957
v  14.15060043  0.00000000 -0.00000000
v  37.16999817  4.66416979 -0.00000000
v  35.35530090  23.05739975 -35.35530090
v  50.00000000  23.05739975  0.00000000
v  50.00000000  63.69179916  0.00000000
v  37.16999817  87.00980377  0.00000000
v  14.15060043  92.92279816  0.00000000
v  0.00000000  92.92279816  0.00000000
v -14.15060043  92.92279816  0.00000000
v -37.16999817  87.00980377  0.00000000
v -50.00000000  63.69179916 -0.00000000
v -50.00000000  23.05739975 -0.00000000
v -37.16999817  4.66416979 -0.00000000
v -14.15060043  0.00000000 -0.00000000
v  0.00000000  0.00000000 -0.00000000
v -10.00599957  0.00000000  10.00599957
v  0.00000000  0.00000000  14.15060043
v  0.00000000  4.66416979  37.16999817
v -26.28319931  4.66416979  26.28319931
v  0.00000000  23.05739975  50.00000000
v -35.35530090  23.05739975  35.35530090
v -0.00000000  63.69179916  50.00000000
v -35.35530090  63.69179916  35.35530090
v -0.00000000  87.00980377  37.16999817
v -26.28319931  87.00980377  26.28319931
v -10.00599957  92.92279816  10.00599957
v  0.00000000  92.92279816  14.15060043
v  26.28319931  87.00980377  26.28319931
v  10.00599957  92.92279816  10.00599957
v  35.35530090  63.69179916  35.35530090
v  35.35530090  23.05739975  35.35530090
v  26.28319931  4.66416979  26.28319931
v  10.00599957  0.00000000  10.00599957
v -12.02149963  80.73040009 -29.02260017
v  16.17099953  61.02339935 -39.04029846
v -16.17099953  61.02339935 -39.04029846
v  12.02149963  80.73040009 -29.02260017
v  4.57660007  85.72769928 -11.04889965
v -4.57660007  85.72769928 -11.04889965
v -11.04889965  85.72769928 -4.57660007
v -29.02260017  80.73040009 -12.02149963
v -39.04029846  61.02339935 -16.17099953
v -16.17099953  26.68180084 -39.04029846
v -39.04029846  26.68180084 -16.17099953
v -12.02149963  11.13700008 -29.02260017
v -29.02260017  11.13700008 -12.02149963
v -11.04889965  7.19508982 -4.57660007
v -4.57660007  7.19508982 -11.04889965
v  12.02149963  11.13700008 -29.02260017
v  4.57660007  7.19508982 -11.04889965
v  11.04889965  7.19508982 -4.57660007
v  29.02260017  11.13700008 -12.02149963
v  16.17099953  26.68180084 -39.04029846
v  39.04029846  26.68180084 -16.17099953
v  39.04029846  61.02339935 -16.17099953
v  29.02260017  80.73040009 -12.02149963
v  11.04889965  85.72769928 -4.57660007
v  0.00000000  85.72769928 -0.00000000
v -11.04889965  85.72769928  4.57660007
v -29.02260017  80.73040009  12.02149963
v -39.04029846  61.02339935  16.17099953
v -39.04029846  26.68180084  16.17099953
v -29.02260017  11.13700008  12.02149963
v -11.04889965  7.19508982  4.57660007
v  0.00000000  7.19508982 -0.00000000
v -4.57660007  7.19508982  11.04889965
v  4.57660007  7.19508982  11.04889965
v  12.02149963  11.13700008  29.02260017
v -12.02149963  11.13700008  29.02260017
v  16.17099953  26.68180084  39.04029846
v -16.17099953  26.68180084  39.04029846
v  16.17099953  61.02339935  39.04029846
v -16.17099953  61.02339935  39.04029846
v  12.02149963  80.73040009  29.02260017
v -12.02149963  80.73040009  29.02260017
v -4.57660007  85.72769928  11.04889965
v  4.57660007  85.72769928  11.04889965
v  29.02260017  80.73040009  12.02149963
v  11.04889965  85.72769928  4.57660007
v  39.04029846  61.02339935  16.17099953
v  39.04029846  26.68180084  16.17099953
v  29.02260017  11.13700008  12.02149963
v  11.04889965  7.19508982  4.57660007

vt  0.94855779  0.43834162
vt  0.46297976  0.65007752
vt  0.41225985  0.60192674
vt  0.38108107  0.68228257
vt  0.34990230  0.60192674
vt  0.38108107  0.61418724
vt  0.02638762  0.43834162
vt  0.02638762  0.35707620
vt  0.02638762  0.21546137
vt  0.02638762  0.15135925
vt  0.13243240  0.46374205
vt  0.21433109  0.49594706
vt  0.16361117  0.54409784
vt  0.24825442  0.57369733
vt  0.71801519  0.15135925
vt  0.71801519  0.35707620
vt  0.71801519  0.21546137
vt  0.83328652  0.21546137
vt  0.94855779  0.35707620
vt  0.94855779  0.21546137
vt  0.83328652  0.15135925
vt  0.94855779  0.15135925
vt  0.83328652  0.35707620
vt  0.83328652  0.43834162
vt  0.42517450  0.57232726
vt  0.38108107  0.57232726
vt  0.29918244  0.65007752
vt  0.33698770  0.57232726
vt  0.25693014  0.43834162
vt  0.25693014  0.35707620
vt  0.14165887  0.43834162
vt  0.14165887  0.35707620
vt  0.25693014  0.21546137
vt  0.25693014  0.15135925
vt  0.14165887  0.21546137
vt  0.14165887  0.15135925
vt  0.05053378  0.49594706
vt  0.10125363  0.54409784
vt  0.10125363  0.60329676
vt  0.13243240  0.68365258
vt  0.37220141  0.21546137
vt  0.37220141  0.35707620
vt  0.48747268  0.43834162
vt  0.38108107  0.46237212
vt  0.29918244  0.49457714
vt  0.38108107  0.53046733
vt  0.41225985  0.54272783
vt  0.46297976  0.49457714
vt  0.49690309  0.57232726
vt  0.60274398  0.43834162
vt  0.71801519  0.43834162
vt  0.48747268  0.35707620
vt  0.60274398  0.35707620
vt  0.48747268  0.15135925
vt  0.48747268  0.21546137
vt  0.16361117  0.60329676
vt  0.13243240  0.61555713
vt  0.21433109  0.65144753
vt  0.60274398  0.15135925
vt  0.60274398  0.21546137
vt  0.17652583  0.57369733
vt  0.13243240  0.57369733
vt  0.13243240  0.53183740
vt  0.34990230  0.54272783
vt  0.26525906  0.57232726
vt  0.37220141  0.43834162
vt  0.37220141  0.15135925
vt  0.05053378  0.65144753
vt  0.01661042  0.57369733
vt  0.08833903  0.57369733
vt  0.14328256  0.98247820
vt  0.14328274  0.90201169
vt  0.02918941  0.98247820
vt  0.82259488  0.65935773
vt  0.82637745  0.57238644
vt  0.25737673  0.98247820
vt  0.25737655  0.76179028
vt  0.14328256  0.69831866
vt  0.25737673  0.69831866
vt  0.58205312  0.53788394
vt  0.57827055  0.45091259
vt  0.60722458  0.51485753
vt  0.67177653  0.45091259
vt  0.82784474  0.69831866
vt  0.94193894  0.69831866
vt  0.82784492  0.90201169
vt  0.94193870  0.76179028
vt  0.94193870  0.90201169
vt  0.02918919  0.90201169
vt  0.02918919  0.76179028
vt  0.02918941  0.69831866
vt  0.14328274  0.76179028
vt  0.82784474  0.98247820
vt  0.94193894  0.98247820
vt  0.91610080  0.65935773
vt  0.91231823  0.57238644
vt  0.88714677  0.59541279
vt  0.86934781  0.55610436
vt  0.85154891  0.59541279
vt  0.82637745  0.53982216
vt  0.75647581  0.59887308
vt  0.75647581  0.51333553
vt  0.37147009  0.90201169
vt  0.37146994  0.98247820
vt  0.25737655  0.90201169
vt  0.37147009  0.76179028
vt  0.37146994  0.69831866
vt  0.51215142  0.51139730
vt  0.51215142  0.59693485
vt  0.62502354  0.55416614
vt  0.64282250  0.59347469
vt  0.60722458  0.59347469
vt  0.67177653  0.65741950
vt  0.59965754  0.76179028
vt  0.59965736  0.69831866
vt  0.59965754  0.90201169
vt  0.48556393  0.76179028
vt  0.59965736  0.98247820
vt  0.48556393  0.90201169
vt  0.48556408  0.98247820
vt  0.85154891  0.51679581
vt  0.88714677  0.51679581
vt  0.91610080  0.45285088
vt  0.98221993  0.51333553
vt  0.91231823  0.53982216
vt  0.98221993  0.59887308
vt  0.71375149  0.98247820
vt  0.71375132  0.90201169
vt  0.71375155  0.69831866
vt  0.73789567  0.59693485
vt  0.66799396  0.57044828
vt  0.66799396  0.53788394
vt  0.73789567  0.51139730
vt  0.82784492  0.76179028
vt  0.71375132  0.76179028
vt  0.64282250  0.51485753
vt  0.82259488  0.45285088
vt  0.48556408  0.69831866
vt  0.58205312  0.57044828
vt  0.57827055  0.65741950

vn  0.00000000  0.79766703 -0.60309798
vn  0.68446702  0.25101599 -0.68446702
vn  0.00000000  0.25101599 -0.96798301
vn  0.42645499  0.79766703 -0.42645499
vn  0.08842740  0.99215001 -0.08842740
vn  0.00000000  0.99215001 -0.12505500
vn  0.00000000  0.79766703 -0.60309798
vn -0.08842740  0.99215001 -0.08842740
vn -0.42645499  0.79766703 -0.42645499
vn  0.00000000  0.25101599 -0.96798301
vn -0.42645499  0.79766703 -0.42645499
vn  0.00000000  0.79766703 -0.60309798
vn -0.68446702  0.25101599 -0.68446702
vn  0.00000000 -0.30353001 -0.95282203
vn  0.00000000  0.25101599 -0.96798301
vn -0.67374700 -0.30353001 -0.67374700
vn  0.00000000 -0.84159797 -0.54010397
vn  0.00000000 -0.30353001 -0.95282203
vn -0.38191101 -0.84159797 -0.38191101
vn  0.00000000 -0.84159797 -0.54010397
vn -0.07044330 -0.99502498 -0.07044330
vn  0.00000000 -0.99502498 -0.09962190
vn  0.38191101 -0.84159797 -0.38191101
vn  0.00000000 -0.84159797 -0.54010397
vn  0.07044330 -0.99502498 -0.07044330
vn  0.09962190 -0.99502498  0.00000000
vn  0.54010397 -0.84159797  0.00000000
vn  0.67374700 -0.30353001 -0.67374700
vn  0.38191101 -0.84159797 -0.38191101
vn  0.95282203 -0.30353001  0.00000000
vn  0.67374700 -0.30353001 -0.67374700
vn  0.96798301  0.25101599  0.00000000
vn  0.95282203 -0.30353001  0.00000000
vn  0.68446702  0.25101599 -0.68446702
vn  0.00000000  0.25101599 -0.96798301
vn  0.00000000 -0.30353001 -0.95282203
vn  0.00000000 -0.84159797 -0.54010397
vn  0.60309798  0.79766703  0.00000000
vn  0.96798301  0.25101599  0.00000000
vn  0.42645499  0.79766703 -0.42645499
vn  0.42645499  0.79766703 -0.42645499
vn  0.12505500  0.99215001  0.00000000
vn  0.60309798  0.79766703  0.00000000
vn  0.00000000  1.00000000 -0.00000000
vn -0.12505500  0.99215001 -0.00000000
vn -0.42645499  0.79766703 -0.42645499
vn -0.60309798  0.79766703 -0.00000000
vn -0.96798301  0.25101599 -0.00000000
vn -0.60309798  0.79766703 -0.00000000
vn -0.68446702  0.25101599 -0.68446702
vn -0.95282203 -0.30353001 -0.00000000
vn -0.96798301  0.25101599 -0.00000000
vn -0.67374700 -0.30353001 -0.67374700
vn -0.54010397 -0.84159797  0.00000000
vn -0.09962190 -0.99502498  0.00000000
vn -0.54010397 -0.84159797  0.00000000
vn  0.00000000 -1.00000000 -0.00000000
vn -0.09962190 -0.99502498  0.00000000
vn -0.07044330 -0.99502498 -0.07044330
vn -0.07044330 -0.99502498  0.07044330
vn  0.00000000 -0.99502498  0.09962190
vn  0.00000000 -0.84159797  0.54010397
vn -0.07044330 -0.99502498  0.07044330
vn -0.38191101 -0.84159797  0.38191101
vn -0.00000000 -0.30353001  0.95282203
vn -0.38191101 -0.84159797  0.38191101
vn  0.00000000 -0.84159797  0.54010397
vn -0.67374700 -0.30353001  0.67374700
vn -0.00000000  0.25101599  0.96798301
vn -0.67374700 -0.30353001  0.67374700
vn -0.00000000 -0.30353001  0.95282203
vn -0.68446702  0.25101599  0.68446702
vn -0.00000000  0.79766703  0.60309798
vn -0.00000000  0.25101599  0.96798301
vn -0.42645499  0.79766703  0.42645499
vn -0.00000000  0.79766703  0.60309798
vn -0.08842740  0.99215001  0.08842740
vn -0.42645499  0.79766703  0.42645499
vn -0.00000000  0.99215001  0.12505500
vn  0.42645499  0.79766703  0.42645499
vn -0.00000000  0.79766703  0.60309798
vn  0.08842740  0.99215001  0.08842740
vn  0.42645499  0.79766703  0.42645499
vn  0.60309798  0.79766703  0.00000000
vn  0.68446702  0.25101599  0.68446702
vn -0.00000000 -0.30353001  0.95282203
vn -0.00000000  0.25101599  0.96798301
vn  0.67374700 -0.30353001  0.67374700
vn  0.00000000 -0.84159797  0.54010397
vn  0.38191101 -0.84159797  0.38191101
vn  0.07044330 -0.99502498  0.07044330
vn  0.95282203 -0.30353001  0.00000000
vn  0.54010397 -0.84159797  0.00000000
vn  0.67374700 -0.30353001  0.67374700
vn -0.60309798  0.79766703 -0.00000000
vn -0.67374700 -0.30353001  0.67374700
vn -0.67374700 -0.30353001  0.67374700
vn -0.38191101 -0.84159797  0.38191101
vn -0.23079599  0.79766703 -0.55719000
vn  0.37043101  0.25101599 -0.89429998
vn -0.37043101  0.25101599 -0.89429998
vn  0.23079599  0.79766703 -0.55719000
vn  0.04785660  0.99215001 -0.11553600
vn -0.04785660  0.99215001 -0.11553600
vn -0.11553600  0.99215001 -0.04785660
vn -0.55719000  0.79766703 -0.23079599
vn -0.55719000  0.79766703 -0.23079599
vn -0.89429998  0.25101599 -0.37043101
vn -0.36462900 -0.30353001 -0.88029301
vn -0.88029301 -0.30353001 -0.36462900
vn -0.20668900 -0.84159797 -0.49899101
vn -0.36462900 -0.30353001 -0.88029301
vn -0.49899101 -0.84159797 -0.20668900
vn -0.09203860 -0.99502498 -0.03812370
vn -0.49899101 -0.84159797 -0.20668900
vn -0.03812370 -0.99502498 -0.09203860
vn  0.20668900 -0.84159797 -0.49899101
vn -0.20668900 -0.84159797 -0.49899101
vn  0.03812370 -0.99502498 -0.09203860
vn  0.09203860 -0.99502498 -0.03812370
vn  0.49899101 -0.84159797 -0.20668900
vn  0.36462900 -0.30353001 -0.88029301
vn  0.88029301 -0.30353001 -0.36462900
vn  0.89429998  0.25101599 -0.37043101
vn  0.88029301 -0.30353001 -0.36462900
vn -0.20668900 -0.84159797 -0.49899101
vn  0.55719000  0.79766703 -0.23079599
vn  0.89429998  0.25101599 -0.37043101
vn  0.23079599  0.79766703 -0.55719000
vn  0.23079599  0.79766703 -0.55719000
vn  0.11553600  0.99215001 -0.04785660
vn  0.55719000  0.79766703 -0.23079599
vn -0.11553600  0.99215001  0.04785660
vn -0.55719000  0.79766703 -0.23079599
vn -0.55719000  0.79766703  0.23079599
vn -0.89429998  0.25101599  0.37043101
vn -0.89429998  0.25101599 -0.37043101
vn -0.88029301 -0.30353001  0.36462900
vn -0.89429998  0.25101599  0.37043101
vn -0.88029301 -0.30353001 -0.36462900
vn -0.49899101 -0.84159797  0.20668900
vn -0.09203860 -0.99502498  0.03812370
vn -0.03812370 -0.99502498  0.09203860
vn  0.03812370 -0.99502498  0.09203860
vn  0.20668900 -0.84159797  0.49899101
vn -0.20668900 -0.84159797  0.49899101
vn  0.36462900 -0.30353001  0.88029301
vn -0.20668900 -0.84159797  0.49899101
vn  0.20668900 -0.84159797  0.49899101
vn -0.36462900 -0.30353001  0.88029301
vn  0.37043101  0.25101599  0.89429998
vn  0.36462900 -0.30353001  0.88029301
vn -0.37043101  0.25101599  0.89429998
vn  0.23079599  0.79766703  0.55719000
vn -0.37043101  0.25101599  0.89429998
vn -0.23079599  0.79766703  0.55719000
vn -0.04785660  0.99215001  0.11553600
vn -0.23079599  0.79766703  0.55719000
vn  0.04785660  0.99215001  0.11553600
vn  0.55719000  0.79766703  0.23079599
vn  0.23079599  0.79766703  0.55719000
vn  0.11553600  0.99215001  0.04785660
vn  0.55719000  0.79766703  0.23079599
vn  0.89429998  0.25101599  0.37043101
vn  0.36462900 -0.30353001  0.88029301
vn  0.88029301 -0.30353001  0.36462900
vn  0.49899101 -0.84159797  0.20668900
vn  0.09203860 -0.99502498  0.03812370
vn  0.49899101 -0.84159797 -0.20668900
vn  0.88029301 -0.30353001  0.36462900
vn -0.55719000  0.79766703  0.23079599
vn -0.36462900 -0.30353001  0.88029301
vn -0.37043101  0.25101599  0.89429998
vn -0.88029301 -0.30353001  0.36462900

g Mesh2 bushlayer2 Model
usemtl Color_000
f 51/71/99 52/89/100 53/72/101
f 52/89/100 51/71/99 54/73/102
f 51/74/99 55/97/103 54/95/102
f 55/97/103 51/74/99 56/99/104
f 51/74/99 57/75/105 56/99/104
f 57/75/105 51/74/99 58/101/106
f 53/72/101 58/76/107 51/71/99
f 58/76/107 53/72/101 59/105/108
f 60/92/109 59/105/108 53/72/101
f 59/105/108 60/92/109 61/77/110
f 62/78/111 61/77/110 60/92/112
f 61/77/110 62/78/111 63/79/113
f 62/81/111 64/80/114 63/108/115
f 64/80/114 62/81/111 65/82/116
f 66/83/117 65/82/116 62/81/118
f 65/82/116 66/83/117 67/136/119
f 66/83/117 68/132/120 67/136/119
f 68/132/120 66/83/117 69/133/121
f 70/87/122 69/84/121 66/85/117
f 69/84/121 70/87/122 71/134/123
f 70/87/122 72/86/124 71/134/125
f 72/86/124 70/87/122 52/88/100
f 70/90/122 53/72/101 52/89/100
f 53/72/101 70/90/122 60/92/109
f 66/91/117 60/92/109 70/90/122
f 60/92/109 66/91/117 62/78/126
f 52/88/100 73/93/127 72/86/128
f 73/93/127 52/88/100 54/94/129
f 54/95/130 74/96/131 73/126/132
f 74/96/131 54/95/130 55/97/103
f 74/96/131 55/97/103 75/98/44
f 55/97/103 56/99/104 75/98/44
f 56/99/104 57/75/105 75/98/44
f 75/98/44 57/75/105 76/100/133
f 58/101/134 76/100/133 57/75/105
f 76/100/133 58/101/134 77/102/135
f 58/76/107 78/103/136 77/104/135
f 78/103/136 58/76/107 59/105/137
f 59/105/137 79/106/138 78/103/139
f 79/106/138 59/105/137 61/77/110
f 61/77/140 80/107/141 79/106/138
f 80/107/141 61/77/140 63/79/115
f 63/108/115 81/139/142 80/109/141
f 81/139/142 63/108/115 64/80/114
f 82/110/57 81/139/142 64/80/114
f 82/110/57 83/112/143 81/139/142
f 84/111/144 83/112/143 82/110/57
f 85/113/145 83/112/143 84/111/144
f 83/112/143 85/113/145 86/140/146
f 87/114/147 86/138/148 85/115/149
f 86/138/148 87/114/147 88/117/150
f 89/116/151 88/117/150 87/114/152
f 88/117/150 89/116/151 90/119/153
f 91/118/154 90/119/155 89/116/151
f 90/119/155 91/118/154 92/120/156
f 91/123/154 93/121/157 92/137/158
f 93/121/157 91/123/154 94/122/159
f 95/124/160 94/122/159 91/123/161
f 94/122/159 95/124/160 96/125/162
f 95/124/160 74/96/131 96/125/162
f 74/96/131 95/124/160 73/126/132
f 95/127/163 72/86/128 73/93/127
f 72/86/128 95/127/163 97/128/164
f 95/127/160 89/116/151 97/128/164
f 89/116/151 95/127/160 91/118/161
f 87/114/165 97/128/164 89/116/151
f 97/128/164 87/114/165 98/135/166
f 85/115/145 98/135/166 87/114/147
f 98/135/166 85/115/145 99/129/167
f 85/113/145 100/131/168 99/130/167
f 100/131/168 85/113/145 84/111/144
f 100/131/168 84/111/144 82/110/57
f 68/132/120 100/131/168 82/110/57
f 68/132/120 99/130/167 100/131/168
f 99/130/167 68/132/120 69/133/121
f 71/134/125 99/129/167 69/84/169
f 99/129/167 71/134/125 98/135/166
f 71/134/125 97/128/164 98/135/170
f 97/128/164 71/134/125 72/86/124
f 68/132/120 82/110/57 67/136/119
f 67/136/119 82/110/57 65/82/116
f 82/110/57 64/80/114 65/82/116
f 74/96/131 75/98/44 96/125/162
f 96/125/162 75/98/44 94/122/159
f 75/98/44 93/121/157 94/122/159
f 75/98/44 76/100/133 93/121/157
f 76/100/133 92/137/158 93/121/157
f 92/137/158 76/100/133 77/102/135
f 78/103/136 92/120/158 77/104/171
f 92/120/158 78/103/136 90/119/155
f 78/103/139 88/117/172 90/119/173
f 88/117/172 78/103/139 79/106/138
f 79/106/174 86/138/148 88/117/150
f 86/138/148 79/106/174 80/107/141
f 81/139/142 86/140/146 80/109/141
f 86/140/146 81/139/142 83/112/143

g Mesh1 bushlayer1 Model
usemtl Color_009
f 1/1/1 2/23/2 3/19/3
f 2/23/2 1/1/1 4/24/4
f 1/4/1 5/3/5 4/2/4
f 5/3/5 1/4/1 6/6/6
f 1/4/7 7/5/8 6/6/6
f 7/5/8 1/4/7 8/27/9
f 3/8/10 8/31/11 1/7/12
f 8/31/11 3/8/10 9/32/13
f 10/9/14 9/32/13 3/8/15
f 9/32/13 10/9/14 11/35/16
f 12/10/17 11/35/16 10/9/18
f 11/35/16 12/10/17 13/36/19
f 12/11/20 14/38/21 13/37/19
f 14/38/21 12/11/20 15/63/22
f 16/12/23 15/63/22 12/11/24
f 15/63/22 16/12/23 17/13/25
f 16/12/23 18/61/26 17/13/25
f 18/61/26 16/12/23 19/14/27
f 20/18/28 19/15/27 16/21/29
f 19/15/27 20/18/28 21/17/30
f 20/18/31 22/16/32 21/17/33
f 22/16/32 20/18/31 2/23/34
f 20/18/28 3/19/35 2/23/2
f 3/19/35 20/18/28 10/20/14
f 16/21/23 10/20/36 20/18/28
f 10/20/36 16/21/23 12/22/37
f 2/23/2 23/51/38 22/16/39
f 23/51/38 2/23/2 4/24/40
f 4/2/41 24/25/42 23/49/43
f 24/25/42 4/2/41 5/3/5
f 24/25/42 5/3/5 25/26/44
f 5/3/5 6/6/6 25/26/44
f 6/6/6 7/5/8 25/26/44
f 25/26/44 7/5/8 26/28/45
f 8/27/46 26/28/45 7/5/8
f 26/28/45 8/27/46 27/65/47
f 8/31/11 28/30/48 27/29/49
f 28/30/48 8/31/11 9/32/50
f 9/32/50 29/33/51 28/30/52
f 29/33/51 9/32/50 11/35/16
f 11/35/53 30/34/54 29/33/51
f 30/34/54 11/35/53 13/36/19
f 13/37/19 31/70/55 30/69/56
f 31/70/55 13/37/19 14/38/21
f 32/62/57 31/70/58 14/38/59
f 32/62/57 33/39/60 31/70/58
f 34/57/61 33/39/60 32/62/57
f 35/40/62 33/39/63 34/57/61
f 33/39/63 35/40/62 36/68/64
f 37/55/65 36/67/66 35/54/67
f 36/67/66 37/55/65 38/41/68
f 39/52/69 38/41/70 37/55/71
f 38/41/70 39/52/69 40/42/72
f 41/43/73 40/42/72 39/52/74
f 40/42/72 41/43/73 42/66/75
f 41/44/76 43/64/77 42/45/78
f 43/64/77 41/44/76 44/46/79
f 45/48/80 44/46/79 41/44/81
f 44/46/79 45/48/80 46/47/82
f 45/48/83 24/25/42 46/47/82
f 24/25/42 45/48/83 23/49/84
f 45/50/80 22/16/39 23/51/38
f 22/16/39 45/50/80 47/53/85
f 45/50/83 39/52/74 47/53/85
f 39/52/74 45/50/83 41/43/81
f 37/55/86 47/53/85 39/52/87
f 47/53/85 37/55/86 48/60/88
f 35/54/89 48/60/88 37/55/65
f 48/60/88 35/54/89 49/59/90
f 35/40/62 50/56/91 49/58/90
f 50/56/91 35/40/62 34/57/61
f 50/56/91 34/57/61 32/62/57
f 18/61/26 50/56/91 32/62/57
f 18/61/26 49/58/90 50/56/91
f 49/58/90 18/61/26 19/14/27
f 21/17/92 49/59/90 19/15/93
f 49/59/90 21/17/92 48/60/88
f 21/17/33 47/53/85 48/60/94
f 47/53/85 21/17/33 22/16/32
f 18/61/26 32/62/57 17/13/25
f 17/13/25 32/62/57 15/63/22
f 32/62/57 14/38/59 15/63/22
f 24/25/42 25/26/44 46/47/82
f 46/47/82 25/26/44 44/46/79
f 25/26/44 43/64/77 44/46/79
f 25/26/44 26/28/45 43/64/77
f 26/28/45 42/45/78 43/64/77
f 42/45/78 26/28/45 27/65/47
f 28/30/48 42/66/78 27/29/95
f 42/66/78 28/30/48 40/42/72
f 28/30/52 38/41/96 40/42/72
f 38/41/96 28/30/52 29/33/51
f 29/33/51 36/67/64 38/41/97
f 36/67/64 29/33/51 30/34/54
f 31/70/55 36/68/98 30/69/56
f 36/68/98 31/70/55 33/39/63
