# Alias OBJ Model File
# Exported from SketchUp, (c) 2000-2006 Google, Inc.
# File units = meters

mtllib flashB.mtl

g Mesh1 Group1 Model

usemtl monsterText1
v 0 0 -0
vt 1.4262e-008 -0.75
vn 0 -1 -0
v -8 0 5.697
vt -0.178031 -1
v -8 0 -0
vt 2.22045e-016 -1
f 1/1/1 2/2/1 3/3/1

v -8 0 32
vt -1 -1
f 2/2/1 1/1/1 4/4/1

vn -0 1 0
f 3/3/2 2/2/2 1/1/2

f 4/4/2 1/1/2 2/2/2

v 0 0 32
vt -1 -0.75
f 4/4/1 1/1/1 5/5/1

f 5/5/2 1/1/2 4/4/2

v 8 0 -0
vt 2.85241e-008 -0.5
f 5/5/1 1/1/1 6/6/1

f 6/6/2 1/1/2 5/5/2

v 8 0 32
vt -1 -0.5
f 5/5/1 6/6/1 7/7/1

f 7/7/2 6/6/2 5/5/2

v 8 0 5.697
vt -0.178031 -0.5
f 7/7/1 6/6/1 8/8/1

f 8/8/2 6/6/2 7/7/2

g Mesh2 Group1 Model

v 0 -8 5.697
vt 1.82197 -3.01419e-023
vn 1 0 -0
vt 1 0.25
v 0 -8 32
vt 1 -1.65436e-023
f 9/9/3 5/10/3 10/11/3

v 0 8 32
vt 1 0.5
f 5/10/3 9/9/3 11/12/3

vn -1 -0 0
f 10/11/4 5/10/4 9/9/4

f 11/12/4 9/9/4 5/10/4

v 0 8 5.697
vt 1.82197 0.5
f 11/12/3 9/9/3 12/13/3

f 12/13/4 9/9/4 11/12/4

v 0 -8 -0
vt 2 -3.30872e-023
f 12/13/3 9/9/3 13/14/3

f 13/14/4 9/9/4 12/13/4

v 0 8 -0
vt 2 0.5
f 12/13/3 13/14/3 14/15/3

f 14/15/4 13/14/4 12/13/4

vt 2 0.25
f 14/15/3 13/14/3 1/16/3

f 1/16/4 13/14/4 14/15/4

