# Alias OBJ Model File
# Exported from SketchUp, (c) 2000-2006 Google, Inc.
# File units = meters

mtllib flashA.mtl

g Mesh1 Group1 Model

usemtl monsterText1
v 8 0 5.697
vt 2.10724e-008 0.5
vn 0 0 1
v 0 -8 5.697
vt -0.5 0
v 8 -8 5.697
vt 0 0
f 1/1/1 2/2/1 3/3/1

v -8 -8 5.697
vt -1 0
f 2/2/1 1/1/1 4/4/1

vt 1 -9.02389e-017
vn -0 -0 -1
vt 0.5 -9.02389e-017
vt 1 0.5
f 3/5/2 2/6/2 1/7/2

vt -2.34163e-023 -9.02389e-017
f 4/8/2 1/7/2 2/6/2

v -8 0 5.697
vt -1 0.5
f 4/4/1 1/1/1 5/9/1

vt 1.29746e-007 0.5
f 5/10/2 1/7/2 4/8/2

v 8 8 5.697
vt 4.21448e-008 1
f 5/9/1 1/1/1 6/11/1

vt 1 1
f 6/12/2 1/7/2 5/10/2

v -8 8 5.697
vt -1 1
f 5/9/1 6/11/1 7/13/1

vt 2.59492e-007 1
f 7/14/2 6/12/2 5/10/2

v 0 8 5.697
vt -0.5 1
f 7/13/1 6/11/1 8/15/1

vt 0.5 1
f 8/16/2 6/12/2 7/14/2

