# Alias OBJ Model File
# Exported from SketchUp, (c) 2000-2006 Google, Inc.
# File units = meters

mtllib roundBeam.mtl

g Mesh1 Model

usemtl Material1
v 0 0 1
vt 0 0.5
vn 0.707107 0.707107 0
v -0.353553 0.353553 -0
vt -1 0
v -0.353553 0.353553 1
vt 0 0
f 1/1/1 2/2/1 3/3/1

v 0 0 -0
vt -1 0.5
f 2/2/1 1/1/1 4/4/1

vn -0.707107 -0.707107 0
f 3/3/2 2/2/2 1/1/2

f 4/4/2 1/1/2 2/2/2

v 0.353553 -0.353553 1
vt 0 1
f 4/4/1 1/1/1 5/5/1

f 5/5/2 1/1/2 4/4/2

v -0.5 0 -0
vt -1 -1
vn 0 1 0
vt 0 -0.5
vt -1 -0.5
f 6/6/3 1/7/3 4/8/3

v -0.5 0 1
vt 0 -1
f 1/7/3 6/6/3 7/9/3

vn 0 -1 0
f 7/9/4 6/6/4 1/7/4

f 4/8/4 1/7/4 6/6/4

v 0.5 0 1
vt 0 0
f 4/8/3 1/7/3 8/10/3

f 8/10/4 1/7/4 4/8/4

v 0.5 0 -0
vt -1 0
f 4/8/3 8/10/3 9/11/3

f 9/11/4 8/10/4 4/8/4

v 0.353553 -0.353553 -0
vt -1 1
f 4/4/1 5/5/1 10/12/1

f 10/12/2 5/5/2 4/4/2

g Mesh2 Model

v 0.353553 0.353553 -0
vt 0 1
vn -0.707107 0.707107 0
vt 1 0.5
v 0.353553 0.353553 1
vt 1 1
f 11/13/5 1/14/5 12/15/5

v -0.353553 -0.353553 1
vt 1 0
f 1/14/5 11/13/5 13/16/5

vn 0.707107 -0.707107 0
f 12/15/6 1/14/6 11/13/6

f 13/16/6 11/13/6 1/14/6

v -0.353553 -0.353553 -0
vt 0 0
f 13/16/5 11/13/5 14/17/5

f 14/17/6 11/13/6 13/16/6

vt 0 0.5
f 14/17/5 11/13/5 4/18/5

f 4/18/6 11/13/6 14/17/6

g Mesh3 Model

v 0 0.5 -0
vt 0 1
vn -1 0 0
vt 1 0.5
v 0 0.5 1
vt 1 1
f 15/19/7 1/20/7 16/21/7

v 0 -0.5 1
f 1/20/7 15/19/7 17/16/7

vn 1 0 0
f 16/21/8 1/20/8 15/19/8

f 17/16/8 15/19/8 1/20/8

v 0 -0.5 -0
f 17/16/7 15/19/7 18/3/7

f 18/3/8 15/19/8 17/16/8

vt 0 0.5
f 18/3/7 15/19/7 4/22/7

f 4/22/8 15/19/8 18/3/8

