# file generated by UVMapper
# NumVerts/NumTVerts/NumVNormals/NumFacets   8/16/6/6
# NumGroups/NumMaterials/NumRegions   1/6/0
# x/y/color/ppu   512/512/0/50.00000000

v -50000.00000000 -50000.00000000 -50000.00000000
v -50000.00000000 -50000.00000000  50000.00000000
v  50000.00000000 -50000.00000000  50000.00000000
v  50000.00000000 -50000.00000000 -50000.00000000
v -50000.00000000  50000.00000000 -50000.00000000
v -50000.00000000  50000.00000000  50000.00000000
v  50000.00000000  50000.00000000 -50000.00000000
v  50000.00000000  50000.00000000  50000.00000000

vt  0.25000000  0.75
vt  0.25000000  0.5
vt  0.50000000  0.5
vt  0.50000000  0.75
vt  0.50000000  0.5
vt  0.50000000  0.25
vt  0.00000000  0.25
vt  0.25000000  0.25
vt  0.25000000  0.5
vt  0.00000000  0.5
vt  0.75000000  0.25
vt  1.00000000  0.25
vt  1.00000000  0.5
vt  0.75000000  0.5
vt  0.25000000  0.0
vt  0.50000000  0.0

vn  0.00000000  1.00000000 -0.00000000
vn  1.00000000  0.00000000 -0.00000000
vn  0.00000000  0.00000000  1.00000000
vn -1.00000000  0.00000000 -0.00000000
vn  0.00000000  0.00000000 -1.00000000
vn  0.00000000 -1.00000000 -0.00000000

g Mesh1 Model
usemtl skybox
f 1/1/1 2/2/1 3/3/1 4/4/1
f 2/6/2 1/11/2 5/14/2 6/5/2
f 1/8/3 4/6/3 7/5/3 5/9/3
f 4/7/4 3/8/4 8/9/4 7/10/4
f 3/11/5 2/12/5 6/13/5 8/14/5
f 6/8/6 5/15/6 7/16/6 8/6/6
