# file generated by UVMapper
# NumVerts/NumTVerts/NumVNormals/NumFacets   37/72/23/61
# NumGroups/NumMaterials/NumRegions   2/2/0
# x/y/color/ppu   1024/1024/0/50.00000000

v  0.40142900  7.07912016 -5.29553986
v  0.54093802  6.93961000  7.51306009
v  0.54093802  6.93961000 -5.29553986
v  0.40142900  7.07912016  7.51306009
v -0.40142900  7.07912016 -5.29553986
v -0.40142900  7.07912016  7.51306009
v -0.54093802  6.93961000 -5.29553986
v -0.54093802  6.93961000  7.51306009
v -0.54093802  6.28993988 -5.29553986
v -0.54093802  6.28993988  7.51306009
v  0.54093802  6.28993988  7.51306009
v  0.54093802  6.28993988 -5.29553986
v  0.00000000  6.28993988 -5.29553986
v  1.59379005  7.07912016 -6.11228991
v  1.71800995  6.28993988 -5.90725994
v  1.59379005  6.28993988 -6.11228991
v  1.71800995  7.07912016 -5.90725994
v -1.71800995  7.07912016 -5.90725994
v -1.59379005  7.07912016 -6.11228991
v  1.42551005  7.07912016 -6.19363022
v -1.42551005  7.07912016 -6.19363022
v -1.42551005  6.28993988 -6.19363022
v  1.42551005  6.28993988 -6.19363022
v -1.59379005  6.28993988 -6.11228991
v -1.71800995  6.28993988 -5.90725994
v  1.64994001  6.28993988 -5.58193016
v  1.64994001  7.07912016 -5.58193016
v -1.64994001  7.07912016 -5.58193016
v -1.64994001  6.28993988 -5.58193016
v  1.53205001  6.28993988 -5.37691021
v  1.53205001  7.07912016 -5.37691021
v -1.53205001  7.07912016 -5.37691021
v -1.53205001  6.28993988 -5.37691021
v  1.37230003  6.28993988 -5.29553986
v  1.37230003  7.07912016 -5.29553986
v -1.37230003  7.07912016 -5.29553986
v -1.37230003  6.28993988 -5.29553986

vt  0.90000647  0.88834095
vt  0.91867685  0.69423026
vt  0.90326840  0.69423026
vt  0.90326840  0.88834095
vt  0.92193884  0.69423026
vt  0.92193884  0.88834095
vt  0.86097199  0.69423026
vt  0.87136269  0.69423026
vt  0.88048917  0.69423026
vt  0.88961577  0.88834095
vt  0.88961577  0.69423026
vt  0.90000647  0.69423026
vt  0.91867685  0.88834095
vt  0.85771000  0.88834095
vt  0.87136269  0.88834095
vt  0.86097199  0.88834095
vt  0.91326779  0.92305040
vt  0.91730976  0.92305040
vt  0.91730976  0.94425952
vt  0.91326779  0.94425952
vt  0.89741081  0.96262950
vt  0.89164442  0.97032565
vt  0.83212167  0.96813965
vt  0.89496195  0.96813965
vt  0.83543921  0.97032565
vt  0.92847717  0.94425952
vt  0.98468244  0.92305040
vt  0.92847717  0.92305040
vt  0.92515969  0.94425952
vt  0.92515969  0.92305040
vt  0.89164442  0.89698428
vt  0.89496195  0.89917028
vt  0.83212167  0.89917028
vt  0.83543921  0.89698428
vt  0.98468244  0.94425952
vt  0.98799992  0.92305040
vt  0.98799992  0.94425952
vt  0.80977386  0.94425952
vt  0.80977386  0.92305040
vt  0.82967281  0.90468043
vt  0.89741081  0.90468043
vt  0.90685421  0.94425952
vt  0.82967281  0.96262950
vt  0.83101475  0.95388627
vt  0.81381583  0.94425952
vt  0.82022941  0.94425952
vt  0.81381583  0.92305040
vt  0.89606887  0.91342366
vt  0.89374477  0.91893357
vt  0.90685421  0.92305040
vt  0.90281242  0.92305040
vt  0.90281242  0.94425952
vt  0.89606887  0.95388627
vt  0.89374477  0.94837642
vt  0.82022941  0.92305040
vt  0.82427120  0.94425952
vt  0.82427120  0.92305040
vt  0.83101475  0.91342366
vt  0.89059544  0.92112035
vt  0.89374477  0.92305040
vt  0.89374477  0.94425952
vt  0.89059544  0.94618958
vt  0.83333886  0.94837642
vt  0.83648819  0.94618958
vt  0.83333886  0.92305040
vt  0.83333886  0.94425952
vt  0.83333886  0.91893357
vt  0.83648819  0.92112035
vt  0.89059544  0.92305040
vt  0.83648819  0.92305040
vt  0.89059544  0.94425952
vt  0.83648819  0.94425952

vn  0.70710802  0.70710599  0.00000000
vn  0.00000000  1.00000000  0.00000000
vn -0.70710802  0.70710599 -0.00000000
vn -1.00000000 -0.00000009 -0.00000000
vn -0.00000000 -1.00000000 -0.00000004
vn  1.00000000 -0.00000009  0.00000000
vn  0.00000000  0.00000000  1.00000000
vn  0.67293400  0.00000000 -0.73970300
vn  0.98571599  0.00000000 -0.16841801
vn  0.00000000  1.00000000  0.00000000
vn  0.00000000  0.00000000 -1.00000000
vn  0.43519399  0.00000000 -0.90033698
vn  0.00000000 -1.00000000  0.00000023
vn -0.67293400  0.00000000 -0.73970300
vn -0.43519399  0.00000000 -0.90033698
vn -0.98571599  0.00000000 -0.16841801
vn  0.93445700 -0.00000003  0.35607699
vn -0.93445700 -0.00000003  0.35607699
vn  0.68893898 -0.00000007  0.72481900
vn -0.68893898 -0.00000007  0.72481900
vn  0.45388201 -0.00000007  0.89106202
vn -0.45388201 -0.00000007  0.89106202
vn -0.00000000  0.00000000  1.00000000

g Mesh1 Group1 Model
usemtl ar02010_BD
f 1/3/1 2/1/1 3/12/1
f 2/1/1 1/3/1 4/4/1
usemtl _LightGray_
f 5/2/2 4/4/2 1/3/2
f 4/4/2 5/2/2 6/13/2
usemtl ar02010_BD
f 7/5/3 6/13/3 5/2/3
f 6/13/3 7/5/3 8/6/3
usemtl _LightGray_
f 9/8/4 8/16/4 7/7/4
f 8/16/4 9/8/4 10/15/4
f 9/8/5 11/10/5 10/15/5
f 9/8/5 12/11/5 11/10/5
f 12/11/5 9/8/5 13/9/5
f 12/11/6 2/1/6 11/10/6
f 2/1/6 12/11/6 3/12/6
f 4/4/7 11/10/7 2/1/7
f 6/13/7 11/10/7 4/4/7
f 6/14/7 10/15/7 11/10/7
f 10/15/7 6/14/7 8/16/7
g Mesh2 Group2 Model
f 14/19/8 15/17/9 16/18/8
f 15/17/9 14/19/8 17/20/9
f 14/24/10 18/43/10 17/21/10
f 14/24/10 19/23/10 18/43/10
f 20/22/10 19/23/10 14/24/10
f 19/23/10 20/22/10 21/25/10
f 20/26/11 22/27/11 21/35/11
f 22/27/11 20/26/11 23/28/11
f 14/29/8 23/28/12 20/26/12
f 23/28/12 14/29/8 16/30/8
usemtl ar02010_BD
f 24/33/13 23/31/13 16/32/13
f 23/31/13 24/33/13 22/34/13
usemtl _LightGray_
f 24/36/14 21/35/15 22/27/15
f 21/35/15 24/36/14 19/37/14
f 24/39/14 18/45/16 19/38/14
f 18/45/16 24/39/14 25/47/16
usemtl ar02010_BD
f 24/33/13 16/32/13 25/40/13
f 25/40/13 16/32/13 15/41/13
f 25/40/13 15/41/13 26/48/13
usemtl _LightGray_
f 17/20/9 26/50/17 15/17/9
f 26/50/17 17/20/9 27/42/17
f 17/21/10 18/43/10 27/53/10
f 27/53/10 18/43/10 28/44/10
f 25/47/16 28/46/18 18/45/16
f 28/46/18 25/47/16 29/55/18
usemtl ar02010_BD
f 25/40/13 26/48/13 29/58/13
f 29/58/13 26/48/13 30/49/13
usemtl _LightGray_
f 27/42/17 30/51/19 26/50/17
f 30/51/19 27/42/17 31/52/19
f 27/53/10 28/44/10 31/54/10
f 31/54/10 28/44/10 32/63/10
f 29/55/18 32/56/20 28/46/18
f 32/56/20 29/55/18 33/57/20
usemtl ar02010_BD
f 29/58/13 30/49/13 33/67/13
f 33/67/13 30/49/13 34/59/13
usemtl _LightGray_
f 30/60/19 35/71/21 34/69/21
f 35/71/21 30/60/19 31/61/19
f 31/54/10 32/63/10 35/62/10
f 35/62/10 32/63/10 36/64/10
f 33/65/20 36/72/22 32/66/20
f 36/72/22 33/65/20 37/70/22
usemtl ar02010_BD
f 33/67/13 34/59/13 37/68/13
usemtl _LightGray_
f 35/71/23 37/70/23 34/69/23
f 37/70/23 35/71/23 36/72/23
