# Alias OBJ Model File
# Exported from SketchUp, (c) 2000-2006 Google, Inc.
# File units = centimeters

mtllib map2d.mtl

g Mesh1 Model

usemtl Color_008
v 1500 520 -5954
vt 2344,09 204,724
vn 1 0 -0
v 1500 560 -5997
vt 2361,02 220,472
v 1500 560 -5954
vt 2344,09 220,472
f 1/1/1 2/2/1 3/3/1

v 1500 520 -5997
vt 2361,02 204,724
f 2/2/1 1/1/1 4/4/1

v 1500 480 -5997
vt 2361,02 188,976
f 1/1/1 5/5/1 4/4/1

v 1500 480 -5954
vt 2344,09 188,976
f 5/5/1 1/1/1 6/6/1

v 1500 480 -5911
vt 2327,17 188,976
f 1/1/1 7/7/1 6/6/1

v 1500 520 -5911
vt 2327,17 204,724
f 7/7/1 1/1/1 8/8/1

v 1500 560 -5911
vt 2327,17 220,472
f 1/1/1 9/9/1 8/8/1

f 9/9/1 1/1/1 3/3/1

v 1500 600 -5954
vt 2344,09 236,22
f 10/10/1 9/9/1 3/3/1

v 1500 600 -5911
vt 2327,17 236,22
f 9/9/1 10/10/1 11/11/1

v 1500 640 -5954
vt 2344,09 251,969
f 12/12/1 11/11/1 10/10/1

v 1500 640 -5911
vt 2327,17 251,969
f 11/11/1 12/12/1 13/13/1

v 1500 680 -5911
vt 2327,17 267,717
f 12/12/1 14/14/1 13/13/1

v 1500 680 -5954
vt 2344,09 267,717
f 14/14/1 12/12/1 15/15/1

v 1500 640 -5997
vt 2361,02 251,969
f 16/16/1 15/15/1 12/12/1

v 1500 680 -5997
vt 2361,02 267,717
f 15/15/1 16/16/1 17/17/1

v 1500 640 -6040
vt 2377,95 251,969
f 18/18/1 17/17/1 16/16/1

v 1500 680 -6040
vt 2377,95 267,717
f 17/17/1 18/18/1 19/19/1

vt 2377,95 251,969
vn 1 1,27371e-027 -6,98407e-013
v 1500 680 -6083
vt 2394,88 267,717
vt 2377,95 267,717
f 18/20/2 20/21/2 19/22/2

v 1500 640 -6083
vt 2394,88 251,969
f 20/21/2 18/20/2 21/23/2

vn 1 1,24503e-027 -6,98407e-013
v 1500 600 -6083
vt 2394,88 236,22
f 18/20/3 22/24/3 21/23/3

v 1500 600 -6040
vt 2377,95 236,22
f 22/24/3 18/20/3 23/25/3

v 1500 600 -5997
vt 2361,02 236,22
vt 2377,95 236,22
f 18/18/1 24/26/1 23/27/1

f 24/26/1 18/18/1 16/16/1

f 16/16/1 10/10/1 24/26/1

f 10/10/1 16/16/1 12/12/1

f 3/3/1 24/26/1 10/10/1

f 24/26/1 3/3/1 2/2/1

f 2/2/1 23/27/1 24/26/1

v 1500 560 -6040
vt 2377,95 220,472
f 23/27/1 2/2/1 25/28/1

f 4/4/1 25/28/1 2/2/1

v 1500 520 -6040
vt 2377,95 204,724
f 25/28/1 4/4/1 26/29/1

f 5/5/1 26/29/1 4/4/1

v 1500 480 -6040
vt 2377,95 188,976
f 26/29/1 5/5/1 27/30/1

v 1500 440 -6040
vt 2377,95 173,228
f 5/5/1 28/31/1 27/30/1

v 1500 440 -5997
vt 2361,02 173,228
f 28/31/1 5/5/1 29/32/1

f 6/6/1 29/32/1 5/5/1

v 1500 440 -5954
vt 2344,09 173,228
f 29/32/1 6/6/1 30/33/1

f 7/7/1 30/33/1 6/6/1

v 1500 440 -5911
vt 2327,17 173,228
f 30/33/1 7/7/1 31/34/1

v 1500 480 -5868
vt 2310,24 188,976
f 32/35/1 31/34/1 7/7/1

v 1500 440 -5868
vt 2310,24 173,228
f 31/34/1 32/35/1 33/36/1

v 1500 480 -5825
vt 2293,31 188,976
f 34/37/1 33/36/1 32/35/1

v 1500 440 -5825
vt 2293,31 173,228
f 33/36/1 34/37/1 35/38/1

v 1500 480 -5782
vt 2276,38 188,976
f 36/39/1 35/38/1 34/37/1

v 1500 440 -5782
vt 2276,38 173,228
f 35/38/1 36/39/1 37/40/1

v 1500 480 -5739
vt 2259,45 188,976
f 38/41/1 37/40/1 36/39/1

v 1500 440 -5739
vt 2259,45 173,228
f 37/40/1 38/41/1 39/42/1

v 1500 383 -5782
vt 2276,38 150,787
f 39/42/1 40/43/1 37/40/1

v 1500 383 -5739
vt 2259,45 150,787
f 40/43/1 39/42/1 41/44/1

v 1500 326 -5782
vt 2276,38 128,346
f 41/44/1 42/45/1 40/43/1

v 1500 326 -5739
vt 2259,45 128,346
f 42/45/1 41/44/1 43/46/1

v 1500 269 -5782
vt 2276,38 105,906
f 43/46/1 44/47/1 42/45/1

v 1500 269 -5739
vt 2259,45 105,906
f 44/47/1 43/46/1 45/48/1

v 1500 212 -5782
vt 2276,38 83,4646
f 45/48/1 46/49/1 44/47/1

v 1500 212 -5739
vt 2259,45 83,4646
f 46/49/1 45/48/1 47/50/1

v 1500 155 -5782
vt 2276,38 61,0236
f 47/50/1 48/51/1 46/49/1

v 1500 155 -5739
vt 2259,45 61,0236
f 48/51/1 47/50/1 49/52/1

v 1500 155 -5825
vt 2293,31 61,0236
f 50/53/1 46/49/1 48/51/1

v 1500 212 -5825
vt 2293,31 83,4646
f 46/49/1 50/53/1 51/54/1

v 1500 155 -5868
vt 2310,24 61,0236
f 52/55/1 51/54/1 50/53/1

v 1500 212 -5868
vt 2310,24 83,4646
f 51/54/1 52/55/1 53/56/1

v 1500 155 -5911
vt 2327,17 61,0236
f 54/57/1 53/56/1 52/55/1

v 1500 212 -5911
vt 2327,17 83,4646
f 53/56/1 54/57/1 55/58/1

v 1500 155 -5954
vt 2344,09 61,0236
f 56/59/1 55/58/1 54/57/1

v 1500 212 -5954
vt 2344,09 83,4646
f 55/58/1 56/59/1 57/60/1

v 1500 155 -5997
vt 2361,02 61,0236
f 58/61/1 57/60/1 56/59/1

v 1500 212 -5997
vt 2361,02 83,4646
f 57/60/1 58/61/1 59/62/1

v 1500 155 -6040
vt 2377,95 61,0236
f 60/63/1 59/62/1 58/61/1

v 1500 212 -6040
vt 2377,95 83,4646
f 59/62/1 60/63/1 61/64/1

v 1500 155 -6083
vt 2394,88 61,0236
vn 1 -2,53302e-015 -7,28627e-013
vt 2377,95 83,4646
vt 2377,95 61,0236
f 62/65/4 61/66/4 60/67/4

v 1500 212 -6083
vt 2394,88 83,4646
f 61/66/4 62/65/4 63/68/4

vt 2394,88 61,0236
vn 1 -5,06605e-015 4,02927e-014
v 1500 212 -6126
vt 2411,81 83,4646
vt 2394,88 83,4646
f 62/69/5 64/70/5 63/71/5

v 1500 155 -6126
vt 2411,81 61,0236
f 64/70/5 62/69/5 65/72/5

v 1500 155 -6169
vt 2428,74 61,0236
f 66/73/5 64/70/5 65/72/5

v 1500 212 -6169
vt 2428,74 83,4646
f 64/70/5 66/73/5 67/74/5

v 1500 212 -6212
vt 2445,67 83,4646
f 66/73/5 68/75/5 67/74/5

v 1500 155 -6212
vt 2445,67 61,0236
f 68/75/5 66/73/5 69/76/5

v 1500 155 -6255
vt 2462,6 61,0236
vn 1 -5,06605e-015 3,35773e-014
vt 2445,67 83,4646
vt 2445,67 61,0236
f 70/77/6 68/78/6 69/79/6

v 1500 212 -6255
vt 2462,6 83,4646
f 68/78/6 70/77/6 71/80/6

v 1500 155 -6298
vt 2479,53 61,0236
vn 1 -5,06605e-015 4,02927e-014
vt 2462,6 83,4646
vt 2462,6 61,0236
f 72/81/7 71/82/7 70/83/7

v 1500 212 -6298
vt 2479,53 83,4646
f 71/82/7 72/81/7 73/84/7

vn 1 -5,06605e-015 4,02927e-014
v 1500 212 -6341
vt 2496,46 83,4646
f 72/81/8 74/85/8 73/84/8

v 1500 155 -6341
vt 2496,46 61,0236
f 74/85/8 72/81/8 75/86/8

vt 2496,46 83,4646
vn 1 -2,88765e-015 3,96464e-014
v 1500 269 -6298
vt 2479,53 105,906
vt 2479,53 83,4646
f 74/87/9 76/88/9 73/89/9

v 1500 269 -6341
vt 2496,46 105,906
f 76/88/9 74/87/9 77/90/9

v 1500 326 -6298
vt 2479,53 128,346
f 77/90/9 78/91/9 76/88/9

v 1500 326 -6341
vt 2496,46 128,346
f 78/91/9 77/90/9 79/92/9

v 1500 383 -6298
vt 2479,53 150,787
f 79/92/9 80/93/9 78/91/9

v 1500 383 -6341
vt 2496,46 150,787
f 80/93/9 79/92/9 81/94/9

v 1500 440 -6298
vt 2479,53 173,228
f 81/94/9 82/95/9 80/93/9

v 1500 440 -6341
vt 2496,46 173,228
f 82/95/9 81/94/9 83/96/9

v 1500 480 -6341
vt 2496,46 188,976
f 84/97/9 82/95/9 83/96/9

v 1500 480 -6298
vt 2479,53 188,976
f 82/95/9 84/97/9 85/98/9

v 1500 520 -6298
vt 2479,53 204,724
f 84/97/9 86/99/9 85/98/9

v 1500 520 -6341
vt 2496,46 204,724
f 86/99/9 84/97/9 87/100/9

v 1500 560 -6298
vt 2479,53 220,472
f 87/100/9 88/101/9 86/99/9

v 1500 560 -6341
vt 2496,46 220,472
f 88/101/9 87/100/9 89/102/9

v 1500 600 -6298
vt 2479,53 236,22
f 89/102/9 90/103/9 88/101/9

v 1500 600 -6341
vt 2496,46 236,22
f 90/103/9 89/102/9 91/104/9

v 1500 640 -6298
vt 2479,53 251,969
f 91/104/9 92/105/9 90/103/9

v 1500 640 -6341
vt 2496,46 251,969
f 92/105/9 91/104/9 93/106/9

v 1500 680 -6298
vt 2479,53 267,717
f 93/106/9 94/107/9 92/105/9

v 1500 680 -6341
vt 2496,46 267,717
f 94/107/9 93/106/9 95/108/9

vt 2496,46 267,717
vn 1 -7,21911e-015 4,02927e-014
v 1500 720 -6298
vt 2479,53 283,465
vt 2479,53 267,717
f 95/109/10 96/110/10 94/111/10

v 1500 720 -6341
vt 2496,46 283,465
f 96/110/10 95/109/10 97/112/10

v 1500 720 -6255
vt 2462,6 283,465
vn 1 -7,21911e-015 4,02927e-014
f 98/113/11 94/111/11 96/110/11

v 1500 680 -6255
vt 2462,6 267,717
f 94/111/11 98/113/11 99/114/11

v 1500 720 -6212
vt 2445,67 283,465
vn 1 -7,21911e-015 3,35773e-014
vt 2462,6 267,717
vt 2462,6 283,465
f 100/115/12 99/116/12 98/117/12

v 1500 680 -6212
vt 2445,67 267,717
f 99/116/12 100/115/12 101/118/12

v 1500 720 -6169
vt 2428,74 283,465
vn 1 -7,21911e-015 4,02927e-014
vt 2445,67 267,717
vt 2445,67 283,465
f 102/119/13 101/120/13 100/121/13

v 1500 680 -6169
vt 2428,74 267,717
f 101/120/13 102/119/13 103/122/13

v 1500 720 -6126
vt 2411,81 283,465
vn 1 -7,21911e-015 4,02927e-014
f 104/123/14 103/122/14 102/119/14

v 1500 680 -6126
vt 2411,81 267,717
f 103/122/14 104/123/14 105/124/14

v 1500 720 -6083
vt 2394,88 283,465
f 106/125/14 105/124/14 104/123/14

vt 2394,88 267,717
f 105/124/14 106/125/14 20/126/14

vt 2394,88 283,465
vn 1 -3,60956e-015 -6,9505e-013
vt 2377,95 267,717
vt 2394,88 267,717
f 106/127/15 19/128/15 20/129/15

v 1500 720 -6040
vt 2377,95 283,465
f 19/128/15 106/127/15 107/130/15

vt 2377,95 283,465
f 107/131/1 17/17/1 19/19/1

v 1500 720 -5997
vt 2361,02 283,465
f 17/17/1 107/131/1 108/132/1

f 108/132/1 15/15/1 17/17/1

v 1500 720 -5954
vt 2344,09 283,465
f 15/15/1 108/132/1 109/133/1

f 109/133/1 14/14/1 15/15/1

v 1500 720 -5911
vt 2327,17 283,465
f 14/14/1 109/133/1 110/134/1

v 1500 720 -5868
vt 2310,24 283,465
f 111/135/1 14/14/1 110/134/1

v 1500 680 -5868
vt 2310,24 267,717
f 14/14/1 111/135/1 112/136/1

v 1500 680 -5825
vt 2293,31 267,717
f 111/135/1 113/137/1 112/136/1

v 1500 720 -5825
vt 2293,31 283,465
f 113/137/1 111/135/1 114/138/1

v 1500 680 -5782
vt 2276,38 267,717
f 114/138/1 115/139/1 113/137/1

v 1500 720 -5782
vt 2276,38 283,465
f 115/139/1 114/138/1 116/140/1

v 1500 680 -5739
vt 2259,45 267,717
f 116/140/1 117/141/1 115/139/1

v 1500 720 -5739
vt 2259,45 283,465
f 117/141/1 116/140/1 118/142/1

v 1500 640 -5739
vt 2259,45 251,969
f 119/143/1 115/139/1 117/141/1

v 1500 640 -5782
vt 2276,38 251,969
f 115/139/1 119/143/1 120/144/1

v 1500 600 -5782
vt 2276,38 236,22
f 119/143/1 121/145/1 120/144/1

v 1500 600 -5739
vt 2259,45 236,22
f 121/145/1 119/143/1 122/146/1

v 1500 560 -5739
vt 2259,45 220,472
f 123/147/1 121/145/1 122/146/1

v 1500 560 -5782
vt 2276,38 220,472
f 121/145/1 123/147/1 124/148/1

v 1500 520 -5739
vt 2259,45 204,724
f 125/149/1 124/148/1 123/147/1

v 1500 520 -5782
vt 2276,38 204,724
f 124/148/1 125/149/1 126/150/1

f 38/41/1 126/150/1 125/149/1

f 126/150/1 38/41/1 36/39/1

v 1500 520 -5825
vt 2293,31 204,724
f 36/39/1 127/151/1 126/150/1

f 127/151/1 36/39/1 34/37/1

v 1500 520 -5868
vt 2310,24 204,724
f 34/37/1 128/152/1 127/151/1

f 128/152/1 34/37/1 32/35/1

f 32/35/1 8/8/1 128/152/1

f 8/8/1 32/35/1 7/7/1

v 1500 560 -5868
vt 2310,24 220,472
f 8/8/1 129/153/1 128/152/1

f 129/153/1 8/8/1 9/9/1

f 11/11/1 129/153/1 9/9/1

v 1500 600 -5868
vt 2310,24 236,22
f 129/153/1 11/11/1 130/154/1

f 13/13/1 130/154/1 11/11/1

v 1500 640 -5868
vt 2310,24 251,969
f 130/154/1 13/13/1 131/155/1

f 14/14/1 131/155/1 13/13/1

f 131/155/1 14/14/1 112/136/1

v 1500 640 -5825
vt 2293,31 251,969
f 112/136/1 132/156/1 131/155/1

f 132/156/1 112/136/1 113/137/1

f 113/137/1 120/144/1 132/156/1

f 120/144/1 113/137/1 115/139/1

f 121/145/1 132/156/1 120/144/1

v 1500 600 -5825
vt 2293,31 236,22
f 132/156/1 121/145/1 133/157/1

v 1500 560 -5825
vt 2293,31 220,472
f 121/145/1 134/158/1 133/157/1

f 134/158/1 121/145/1 124/148/1

f 126/150/1 134/158/1 124/148/1

f 134/158/1 126/150/1 127/151/1

f 128/152/1 134/158/1 127/151/1

f 134/158/1 128/152/1 129/153/1

f 130/154/1 134/158/1 129/153/1

f 134/158/1 130/154/1 133/157/1

f 131/155/1 133/157/1 130/154/1

f 133/157/1 131/155/1 132/156/1

vt 2394,88 267,717
v 1500 640 -6126
vt 2411,81 251,969
vt 2411,81 267,717
f 20/159/9 135/160/9 105/161/9

vt 2394,88 251,969
f 135/160/9 20/159/9 21/162/9

v 1500 600 -6126
vt 2411,81 236,22
f 21/162/9 136/163/9 135/160/9

vt 2394,88 236,22
f 136/163/9 21/162/9 22/164/9

v 1500 560 -6126
vt 2411,81 220,472
f 22/164/9 137/165/9 136/163/9

v 1500 560 -6083
vt 2394,88 220,472
f 137/165/9 22/164/9 138/166/9

vt 2394,88 236,22
vn 1 -3,60956e-015 -7,01765e-013
vt 2377,95 220,472
vt 2394,88 220,472
f 22/167/16 25/168/16 138/169/16

vt 2377,95 236,22
f 25/168/16 22/167/16 23/170/16

vt 2377,95 204,724
vn 1 1,257e-027 -7,05123e-013
vt 2394,88 220,472
vt 2377,95 220,472
f 26/171/17 138/172/17 25/173/17

v 1500 520 -6083
vt 2394,88 204,724
f 138/172/17 26/171/17 139/174/17

vt 2377,95 188,976
vn 1 -3,60956e-015 -7,08481e-013
vt 2394,88 204,724
vt 2377,95 204,724
f 27/175/18 139/176/18 26/177/18

v 1500 480 -6083
vt 2394,88 188,976
f 139/176/18 27/175/18 140/178/18

vt 2377,95 188,976
vn 1 -6,45792e-027 -7,11838e-013
v 1500 440 -6083
vt 2394,88 173,228
vt 2394,88 188,976
f 27/179/19 141/180/19 140/181/19

vt 2377,95 173,228
f 141/180/19 27/179/19 28/182/19

vn 1 -1,83414e-027 -7,11838e-013
v 1500 383 -6083
vt 2394,88 150,787
f 28/182/20 142/183/20 141/180/20

v 1500 383 -6040
vt 2377,95 150,787
f 142/183/20 28/182/20 143/184/20

v 1500 383 -5997
vt 2361,02 150,787
vt 2377,95 150,787
f 28/31/1 144/185/1 143/186/1

f 144/185/1 28/31/1 29/32/1

f 30/33/1 144/185/1 29/32/1

v 1500 383 -5954
vt 2344,09 150,787
f 144/185/1 30/33/1 145/187/1

f 31/34/1 145/187/1 30/33/1

v 1500 383 -5911
vt 2327,17 150,787
f 145/187/1 31/34/1 146/188/1

f 33/36/1 146/188/1 31/34/1

v 1500 383 -5868
vt 2310,24 150,787
f 146/188/1 33/36/1 147/189/1

f 35/38/1 147/189/1 33/36/1

v 1500 383 -5825
vt 2293,31 150,787
f 147/189/1 35/38/1 148/190/1

f 35/38/1 40/43/1 148/190/1

f 40/43/1 35/38/1 37/40/1

v 1500 326 -5825
vt 2293,31 128,346
f 40/43/1 149/191/1 148/190/1

f 149/191/1 40/43/1 42/45/1

v 1500 269 -5825
vt 2293,31 105,906
f 42/45/1 150/192/1 149/191/1

f 150/192/1 42/45/1 44/47/1

f 44/47/1 51/54/1 150/192/1

f 51/54/1 44/47/1 46/49/1

f 53/56/1 150/192/1 51/54/1

v 1500 269 -5868
vt 2310,24 105,906
f 150/192/1 53/56/1 151/193/1

f 55/58/1 151/193/1 53/56/1

v 1500 269 -5911
vt 2327,17 105,906
f 151/193/1 55/58/1 152/194/1

f 57/60/1 152/194/1 55/58/1

v 1500 269 -5954
vt 2344,09 105,906
f 152/194/1 57/60/1 153/195/1

f 59/62/1 153/195/1 57/60/1

v 1500 269 -5997
vt 2361,02 105,906
f 153/195/1 59/62/1 154/196/1

f 61/64/1 154/196/1 59/62/1

v 1500 269 -6040
vt 2377,95 105,906
f 154/196/1 61/64/1 155/197/1

vt 2394,88 83,4646
vn 1 9,29198e-028 -7,25269e-013
vt 2377,95 105,906
vt 2377,95 83,4646
f 63/198/21 155/199/21 61/200/21

v 1500 269 -6083
vt 2394,88 105,906
f 155/199/21 63/198/21 156/201/21

vt 2411,81 83,4646
vt 2394,88 105,906
vt 2394,88 83,4646
f 64/202/9 156/203/9 63/204/9

v 1500 269 -6126
vt 2411,81 105,906
f 156/203/9 64/202/9 157/205/9

vt 2428,74 83,4646
f 67/206/9 157/205/9 64/202/9

v 1500 269 -6169
vt 2428,74 105,906
f 157/205/9 67/206/9 158/207/9

vt 2445,67 83,4646
f 68/208/9 158/207/9 67/206/9

v 1500 269 -6212
vt 2445,67 105,906
f 158/207/9 68/208/9 159/209/9

v 1500 269 -6255
vt 2462,6 105,906
f 68/208/9 160/210/9 159/209/9

vt 2462,6 83,4646
f 160/210/9 68/208/9 71/211/9

f 73/89/9 160/210/9 71/211/9

f 160/210/9 73/89/9 76/88/9

v 1500 326 -6255
vt 2462,6 128,346
f 76/88/9 161/212/9 160/210/9

f 161/212/9 76/88/9 78/91/9

f 80/93/9 161/212/9 78/91/9

v 1500 383 -6255
vt 2462,6 150,787
f 161/212/9 80/93/9 162/213/9

v 1500 440 -6255
vt 2462,6 173,228
f 80/93/9 163/214/9 162/213/9

f 163/214/9 80/93/9 82/95/9

f 85/98/9 163/214/9 82/95/9

v 1500 480 -6255
vt 2462,6 188,976
f 163/214/9 85/98/9 164/215/9

v 1500 520 -6255
vt 2462,6 204,724
f 85/98/9 165/216/9 164/215/9

f 165/216/9 85/98/9 86/99/9

v 1500 560 -6255
vt 2462,6 220,472
f 86/99/9 166/217/9 165/216/9

f 166/217/9 86/99/9 88/101/9

v 1500 600 -6255
vt 2462,6 236,22
f 88/101/9 167/218/9 166/217/9

f 167/218/9 88/101/9 90/103/9

v 1500 640 -6255
vt 2462,6 251,969
f 90/103/9 168/219/9 167/218/9

f 168/219/9 90/103/9 92/105/9

vt 2462,6 267,717
f 92/105/9 99/220/9 168/219/9

f 99/220/9 92/105/9 94/107/9

vt 2445,67 267,717
f 101/221/9 168/219/9 99/220/9

v 1500 640 -6212
vt 2445,67 251,969
f 168/219/9 101/221/9 169/222/9

vt 2428,74 267,717
f 103/223/9 169/222/9 101/221/9

v 1500 640 -6169
vt 2428,74 251,969
f 169/222/9 103/223/9 170/224/9

f 105/161/9 170/224/9 103/223/9

f 170/224/9 105/161/9 135/160/9

v 1500 600 -6169
vt 2428,74 236,22
f 135/160/9 171/225/9 170/224/9

f 171/225/9 135/160/9 136/163/9

v 1500 560 -6169
vt 2428,74 220,472
f 136/163/9 172/226/9 171/225/9

f 172/226/9 136/163/9 137/165/9

v 1500 520 -6169
vt 2428,74 204,724
f 137/165/9 173/227/9 172/226/9

v 1500 520 -6126
vt 2411,81 204,724
f 173/227/9 137/165/9 174/228/9

f 138/166/9 174/228/9 137/165/9

vt 2394,88 204,724
f 174/228/9 138/166/9 139/229/9

v 1500 480 -6126
vt 2411,81 188,976
f 139/229/9 175/230/9 174/228/9

vt 2394,88 188,976
f 175/230/9 139/229/9 140/231/9

vt 2394,88 173,228
f 141/232/9 175/230/9 140/231/9

v 1500 440 -6126
vt 2411,81 173,228
f 175/230/9 141/232/9 176/233/9

v 1500 383 -6126
vt 2411,81 150,787
f 141/232/9 177/234/9 176/233/9

vt 2394,88 150,787
f 177/234/9 141/232/9 142/235/9

v 1500 326 -6126
vt 2411,81 128,346
f 142/235/9 178/236/9 177/234/9

v 1500 326 -6083
vt 2394,88 128,346
f 178/236/9 142/235/9 179/237/9

vt 2377,95 150,787
vn 1 -2,53302e-015 -7,15196e-013
vt 2394,88 128,346
vt 2394,88 150,787
f 143/238/22 179/239/22 142/240/22

v 1500 326 -6040
vt 2377,95 128,346
f 179/239/22 143/238/22 180/241/22

vt 2377,95 128,346
f 144/185/1 180/242/1 143/186/1

v 1500 326 -5997
vt 2361,02 128,346
f 180/242/1 144/185/1 181/243/1

f 145/187/1 181/243/1 144/185/1

v 1500 326 -5954
vt 2344,09 128,346
f 181/243/1 145/187/1 182/244/1

f 146/188/1 182/244/1 145/187/1

v 1500 326 -5911
vt 2327,17 128,346
f 182/244/1 146/188/1 183/245/1

f 147/189/1 183/245/1 146/188/1

v 1500 326 -5868
vt 2310,24 128,346
f 183/245/1 147/189/1 184/246/1

f 148/190/1 184/246/1 147/189/1

f 184/246/1 148/190/1 149/191/1

f 149/191/1 151/193/1 184/246/1

f 151/193/1 149/191/1 150/192/1

f 152/194/1 184/246/1 151/193/1

f 184/246/1 152/194/1 183/245/1

f 153/195/1 183/245/1 152/194/1

f 183/245/1 153/195/1 182/244/1

f 154/196/1 182/244/1 153/195/1

f 182/244/1 154/196/1 181/243/1

f 155/197/1 181/243/1 154/196/1

f 181/243/1 155/197/1 180/242/1

vt 2394,88 105,906
vn 1 -2,53302e-015 -7,21911e-013
vt 2377,95 128,346
vt 2377,95 105,906
f 156/247/23 180/248/23 155/249/23

vt 2394,88 128,346
f 180/248/23 156/247/23 179/250/23

f 157/205/9 179/237/9 156/203/9

f 179/237/9 157/205/9 178/236/9

v 1500 326 -6169
vt 2428,74 128,346
f 157/205/9 185/251/9 178/236/9

f 185/251/9 157/205/9 158/207/9

f 159/209/9 185/251/9 158/207/9

v 1500 326 -6212
vt 2445,67 128,346
f 185/251/9 159/209/9 186/252/9

f 160/210/9 186/252/9 159/209/9

f 186/252/9 160/210/9 161/212/9

v 1500 383 -6212
vt 2445,67 150,787
f 161/212/9 187/253/9 186/252/9

f 187/253/9 161/212/9 162/213/9

v 1500 440 -6212
vt 2445,67 173,228
f 162/213/9 188/254/9 187/253/9

f 188/254/9 162/213/9 163/214/9

f 164/215/9 188/254/9 163/214/9

v 1500 480 -6212
vt 2445,67 188,976
f 188/254/9 164/215/9 189/255/9

v 1500 520 -6212
vt 2445,67 204,724
f 164/215/9 190/256/9 189/255/9

f 190/256/9 164/215/9 165/216/9

v 1500 560 -6212
vt 2445,67 220,472
f 165/216/9 191/257/9 190/256/9

f 191/257/9 165/216/9 166/217/9

v 1500 600 -6212
vt 2445,67 236,22
f 166/217/9 192/258/9 191/257/9

f 192/258/9 166/217/9 167/218/9

f 167/218/9 169/222/9 192/258/9

f 169/222/9 167/218/9 168/219/9

f 170/224/9 192/258/9 169/222/9

f 192/258/9 170/224/9 171/225/9

f 171/225/9 191/257/9 192/258/9

f 191/257/9 171/225/9 172/226/9

f 172/226/9 190/256/9 191/257/9

f 190/256/9 172/226/9 173/227/9

f 173/227/9 189/255/9 190/256/9

v 1500 480 -6169
vt 2428,74 188,976
f 189/255/9 173/227/9 193/259/9

f 174/228/9 193/259/9 173/227/9

f 193/259/9 174/228/9 175/230/9

f 176/233/9 193/259/9 175/230/9

v 1500 440 -6169
vt 2428,74 173,228
f 193/259/9 176/233/9 194/260/9

v 1500 383 -6169
vt 2428,74 150,787
f 176/233/9 195/261/9 194/260/9

f 195/261/9 176/233/9 177/234/9

f 177/234/9 185/251/9 195/261/9

f 185/251/9 177/234/9 178/236/9

f 185/251/9 187/253/9 195/261/9

f 187/253/9 185/251/9 186/252/9

f 187/253/9 194/260/9 195/261/9

f 194/260/9 187/253/9 188/254/9

f 189/255/9 194/260/9 188/254/9

f 194/260/9 189/255/9 193/259/9

