# Alias OBJ Model File
# Exported from SketchUp, (c) 2000-2006 Google, Inc.
# File units = meters

mtllib map0e.mtl

g Mesh1 Model

usemtl sand_bleached
v -410.785 0 1048.06
vt -1.46672 -27.1952
vn 0 1 -0
v -571 0 195.556
vt -2.2678 -22.9326
v -571 0 1048.06
vt -2.2678 -27.1952
f 1/1/1 2/2/1 3/3/1

v -571 0 105.416
vt -2.2678 -22.4819
f 2/2/1 1/1/1 4/4/1

v -571 0 -0
vt -2.2678 -21.9548
f 4/4/1 1/1/1 5/5/1

v -492.4 0 -0
vt -1.8748 -21.9548
f 5/5/1 1/1/1 6/6/1

v -492.4 0 -180.4
vt -1.8748 -21.0528
f 6/6/1 1/1/1 7/7/1

v -410.785 0 738.865
vt -1.46672 -25.6492
f 8/8/1 7/7/1 1/1/1

v -183.063 0 -651.935
vt -0.328112 -18.6952
f 9/9/1 7/7/1 8/8/1

v -571 0 -651.935
vt -2.2678 -18.6952
f 10/10/1 7/7/1 9/9/1

v -571 0 -180.4
vt -2.2678 -21.0528
f 7/7/1 10/10/1 11/11/1

v -250.569 0 464.365
vt -0.665642 -24.2767
f 9/9/1 8/8/1 12/12/1

v -250.569 0 738.865
vt -0.665642 -25.6492
f 12/12/1 8/8/1 13/13/1

v -183.063 0 -0
vt -0.328112 -21.9548
f 9/9/1 12/12/1 14/14/1

v -50.6309 0 464.365
vt 0.334049 -24.2767
f 15/15/1 14/14/1 12/12/1

v 0 0 -0
vt 0.587203 -21.9548
f 14/14/1 15/15/1 16/16/1

v 109.585 0 738.865
vt 1.13513 -25.6492
f 15/15/1 17/17/1 16/16/1

v -50.6309 0 738.865
vt 0.334049 -25.6492
f 17/17/1 15/15/1 18/18/1

v 0 0 -180.4
vt 0.587203 -21.0528
f 16/16/1 17/17/1 19/19/1

v 1.10886e-012 0 -595.677
vt 0.587203 -18.9765
f 19/19/1 17/17/1 20/20/1

v 1.10886e-012 0 -651.935
vt 0.587203 -18.6952
f 20/20/1 17/17/1 21/21/1

v 166.923 0 -651.935
vt 1.42182 -18.6952
f 21/21/1 17/17/1 22/22/1

v 166.923 0 -478.335
vt 1.42182 -19.5632
f 22/22/1 17/17/1 23/23/1

v 410.723 0 234.882
vt 2.64082 -23.1293
f 17/17/1 24/24/1 23/23/1

v 698.2 0 1048.06
vt 4.0782 -27.1952
f 17/17/1 25/25/1 24/24/1

v 109.585 0 1048.06
vt 1.13513 -27.1952
f 25/25/1 17/17/1 26/26/1

v 698.2 0 579.967
vt 4.0782 -24.8547
f 24/24/1 25/25/1 27/27/1

v 829 0 234.882
vt 4.7322 -23.1293
f 24/24/1 27/27/1 28/28/1

v 829 0 444.767
vt 4.7322 -24.1787
f 28/28/1 27/27/1 29/29/1

v 410.723 0 -478.335
vt 2.64082 -19.5632
f 24/24/1 30/30/1 23/23/1

v 410.723 0 -163.969
vt 2.64082 -21.135
f 30/30/1 24/24/1 31/31/1

v 829 0 -163.969
vt 4.7322 -21.135
f 30/30/1 31/31/1 32/32/1

v 410.723 0 -651.935
vt 2.64082 -18.6952
f 30/30/1 32/32/1 33/33/1

v 829 0 -651.935
vt 4.7322 -18.6952
f 33/33/1 32/32/1 34/34/1

v -183.063 0 -595.677
vt -0.328112 -18.9765
f 35/35/1 19/19/1 20/20/1

v -183.063 0 -180.4
vt -0.328112 -21.0528
f 19/19/1 35/35/1 36/36/1

f 9/9/1 36/36/1 35/35/1

f 9/9/1 14/14/1 36/36/1

v -610.6 0 105.416
vt -2.4658 -22.4819
f 37/37/1 2/2/1 4/4/1

v -610.6 0 195.556
vt -2.4658 -22.9326
f 2/2/1 37/37/1 38/38/1

