# Alias OBJ Model File
# Exported from SketchUp, (c) 2000-2006 Google, Inc.
# File units = meters

mtllib map0a.mtl

g Mesh1 Model

usemtl texture08
v -701.8 570.8 1178.86
vt -8.3776 -18.7271
vn 0 1 -0
v -571 570.8 1048.06
vt -7.7236 -18.0731
v -701.8 570.8 507.021
vt -8.3776 -15.3679
f 1/1/1 2/2/1 3/3/1

v -250.569 570.8 1178.86
vt -6.12145 -18.7271
f 2/2/1 1/1/1 4/4/1

v -250.569 570.8 1048.06
vt -6.12145 -18.0731
f 2/2/1 4/4/1 5/5/1

v -571 570.8 507.021
vt -7.7236 -15.3679
f 6/6/1 3/3/1 2/2/1

g Mesh2 Model

v 269.8 570.8 1178.86
vt -3.5196 -18.7271
v -50.6309 570.8 1048.06
vt -5.12176 -18.0731
v -50.6309 570.8 1178.86
vt -5.12176 -18.7271
f 7/7/1 8/8/1 9/9/1

v 269.8 570.8 1048.06
vt -3.5196 -18.0731
f 8/8/1 7/7/1 10/10/1

g Mesh3 Model

v -50.6309 -108.3 738.865
vt -5.12176 -16.5271
vn 0 0.930219 0.367005
v -250.569 0 464.365
vt -6.12145 -15.0516
v -250.569 -108.3 738.865
vt -6.12145 -16.5271
f 11/11/2 12/12/2 13/13/2

v -50.6309 0 464.365
vt -5.12176 -15.0516
f 12/12/2 11/11/2 14/14/2

vt -5.12176 -15.0516
vn -1 0 -0
vt -5.12176 -16.5271
v -50.6309 0 738.865
vt -4.61805 -16.3284
f 14/15/3 11/16/3 15/17/3

vt -5.12176 -16.5271
vn 0 0 1
v 109.585 0 738.865
vt -4.32068 -15.9856
vt -5.12176 -15.9856
f 11/18/4 16/19/4 15/20/4

v 109.585 -108.3 738.865
vt -4.32068 -16.5271
f 16/19/4 11/18/4 17/21/4

vt -5.12176 -16.5271
v 109.585 -108.3 939.097
vt -4.32068 -17.5283
vn 1.96879e-019 0.990934 -0.134347
vt -4.32068 -16.5271
f 11/22/1 18/23/5 17/24/1

vt -6.12145 -16.5271
f 13/25/1 18/23/5 11/22/1

v -410.785 -108.3 738.865
vt -6.92253 -16.5271
f 19/26/1 18/23/5 13/25/1

v -410.785 -108.3 939.097
vt -6.92253 -17.5283
f 18/23/5 19/26/1 20/27/5

v -410.785 0 738.865
vt -7.46403 -16.5271
vn 1 0 -0
vt -6.92253 -17.5283
vt -6.92253 -16.5271
f 21/28/6 20/29/6 19/30/6

v -410.785 0 1048.06
vt -7.46403 -18.0731
f 22/31/6 20/29/6 21/28/6

v -410.785 -78.2 1048.06
vt -7.07303 -18.0731
f 20/29/6 22/31/6 23/32/6

v -250.569 -78.2 1048.06
vt -6.12145 -18.0935
vt -6.92253 -17.5283
vt -6.92253 -18.0935
vn 3.90188e-019 0.963902 -0.266258
f 24/33/5 20/34/5 23/35/7

vt -4.32068 -17.5283
f 20/34/5 24/33/5 18/36/5

v -50.6309 -78.2 1048.06
vt -5.12176 -18.0935
f 18/36/5 24/33/5 25/37/5

v -50.6309 -78.2 1178.86
f 24/5/5 26/9/1 25/8/5

v -250.569 -78.2 1178.86
f 26/9/1 24/5/5 27/4/1

v 109.585 -78.2 1048.06
vt -4.32068 -18.0935
f 18/36/5 25/37/5 28/38/7

vt -4.17018 -18.0731
vt -3.77918 -16.5271
vt -4.32068 -17.5283
f 28/39/3 16/40/3 18/41/3

v 109.585 0 1048.06
vt -3.77918 -18.0731
f 16/40/3 28/39/3 29/42/3

vt -4.32068 -16.5271
f 18/41/3 16/40/3 17/43/3

vt -6.92253 -16.5271
v -250.569 0 738.865
vt -6.12145 -15.9856
vt -6.92253 -15.9856
f 19/44/4 30/45/4 21/46/4

vt -6.12145 -16.5271
f 30/45/4 19/44/4 13/47/4

vt -6.12145 -15.0516
vt -6.62516 -16.3284
vt -6.12145 -16.5271
f 12/48/6 30/49/6 13/50/6

g Mesh4 Model

v 829 418.4 689.852
vt -0.723604 -15.315
vn 0 -1 -0
v 698.2 418.4 801.152
vt -1.3776 -14.7585
v 698.2 418.4 689.852
vt -1.3776 -15.315
f 31/51/8 32/52/8 33/53/8

v 829 418.4 801.152
vt -0.723604 -14.7585
f 32/52/8 31/51/8 34/54/8

g Mesh5 Model

v 829 418.4 895.052
vt -0.723604 -16.341
v 698.2 418.4 1006.35
vt -1.3776 -15.7845
v 698.2 418.4 895.052
vt -1.3776 -16.341
f 35/55/8 36/56/8 37/57/8

v 829 418.4 1006.35
vt -0.723604 -15.7845
f 36/56/8 35/55/8 38/58/8

g Mesh6 Model

v -701.8 225 507.021
vn 2.37913e-018 1 9.55331e-018
v -872.895 225 260.178
vt -9.23308 -14.1337
v -872.895 225 507.021
vt -9.23308 -15.3679
f 39/3/9 40/59/9 41/60/9

v -849.895 225 260.178
vt -9.11808 -14.1337
f 40/59/9 39/3/9 42/61/9

v -849.895 225 212.578
vt -9.11808 -13.8957
f 42/61/9 39/3/9 43/62/9

v -849.895 225 91.5785
vt -9.11808 -13.2907
f 43/62/9 39/3/9 44/63/9

v -849.895 225 43.9785
vt -9.11808 -13.0527
f 44/63/9 39/3/9 45/64/9

v -849.895 225 -160.822
vt -9.11808 -12.0287
f 45/64/9 39/3/9 46/65/9

v -849.895 225 -208.422
vt -9.11808 -11.7907
f 46/65/9 39/3/9 47/66/9

v -849.895 225 -329.422
vt -9.11808 -11.1857
f 47/66/9 39/3/9 48/67/9

v -849.895 225 -377.022
vt -9.11808 -10.9477
f 48/67/9 39/3/9 49/68/9

v -571 225 -651.935
vt -7.7236 -9.5731
f 50/69/9 49/68/9 39/3/9

v -872.895 225 -1117.83
vt -9.23308 -7.24362
f 51/70/9 49/68/9 50/69/9

v -872.895 225 -377.022
vt -9.23308 -10.9477
f 49/68/9 51/70/9 52/71/9

v -445.2 225 -755.637
vt -7.0946 -9.05459
f 51/70/9 50/69/9 53/72/9

v -445.2 225 -651.935
vt -7.0946 -9.5731
f 53/72/9 50/69/9 54/73/9

v 1130.89 225 -1117.83
vt 0.785868 -7.24362
f 51/70/9 53/72/9 55/74/9

v -183.063 225 -755.637
vt -5.78392 -9.05459
f 55/74/9 53/72/9 56/75/9

v 1.10886e-012 225 -755.637
vt -4.8686 -9.05459
f 55/74/9 56/75/9 57/76/9

v 1.10886e-012 225 -595.677
vt -4.8686 -9.85439
f 57/76/9 56/75/9 58/77/9

v -183.063 225 -651.935
vt -5.78392 -9.5731
f 59/78/9 58/77/9 56/75/9

v -183.063 225 -595.677
vt -5.78392 -9.85439
f 58/77/9 59/78/9 60/79/9

v 1.10886e-012 225 -651.935
vt -4.8686 -9.5731
f 57/76/9 58/77/9 61/80/9

v 904.5 225 -755.637
vt -0.346104 -9.05459
f 55/74/9 57/76/9 62/81/9

v 1055.39 225 -755.637
vt 0.408368 -9.05459
f 55/74/9 62/81/9 63/82/9

v 904.5 225 444.767
vt -0.346104 -15.0566
f 63/82/9 62/81/9 64/83/9

v 904.5 225 -651.935
vt -0.346104 -9.5731
f 65/84/9 64/83/9 62/81/9

v 829 225 -651.935
vt -0.723604 -9.5731
f 66/85/9 64/83/9 65/84/9

v 829 225 -163.969
vt -0.723604 -12.0129
f 67/86/9 64/83/9 66/85/9

v 829 225 234.882
vt -0.723604 -14.0072
f 68/87/9 64/83/9 67/86/9

v 829 225 444.767
vt -0.723604 -15.0566
f 64/83/9 68/87/9 69/88/9

v 410.723 0 -163.969
vt -3.09837 -12.0129
vn -0.473731 0.880669 -0
vt -0.723604 -14.0072
vt -0.723604 -12.0129
f 70/89/10 68/90/10 67/91/10

v 410.723 0 234.882
vt -3.09837 -14.0072
f 68/90/10 70/89/10 71/92/10

vt -0.346104 -9.05459
v 904.5 570.8 -651.935
vt -2.0751 -9.5731
vt -0.346104 -9.5731
f 62/93/6 72/94/6 65/95/6

v 904.5 570.8 -755.637
vt -2.0751 -9.05459
f 72/94/6 62/93/6 73/96/6

v 410.723 570.8 -651.935
vt -2.81499 -9.5731
f 73/81/1 74/97/1 72/84/1

v 166.923 570.8 -651.935
vt -4.03399 -9.5731
f 73/81/1 75/98/1 74/97/1

v -445.2 570.8 -755.637
f 76/72/1 75/98/1 73/81/1

v -445.2 570.8 -651.935
f 75/98/1 76/72/1 77/73/1

v 410.723 570.8 -478.335
vt -2.81499 -10.4411
f 74/97/1 75/98/1 78/99/1

v 166.923 570.8 -478.335
vt -4.03399 -10.4411
f 78/99/1 75/98/1 79/100/1

v 979.947 225 1294.06
vt 0.0311321 -19.3031
f 63/82/9 64/83/9 80/101/9

v 979.947 225 1352.96
vt 0.0311321 -19.5976
f 80/101/9 64/83/9 81/102/9

v 904.5 225 579.967
vt -0.346104 -15.7326
f 82/103/9 81/102/9 64/83/9

v 829 225 579.967
vt -0.723604 -15.7326
f 83/104/9 81/102/9 82/103/9

v 829 225 689.852
vt -0.723604 -16.282
f 84/105/9 81/102/9 83/104/9

v 829 225 801.152
vt -0.723604 -16.8385
f 85/106/9 81/102/9 84/105/9

v 829 225 895.052
vt -0.723604 -17.308
f 86/107/9 81/102/9 85/106/9

v 829 225 1006.35
vt -0.723604 -17.8645
f 87/108/9 81/102/9 86/107/9

v 829 225 1178.86
vt -0.723604 -18.7271
f 88/109/9 81/102/9 87/108/9

v 567.4 225 1178.86
vt -2.0316 -18.7271
f 89/110/9 81/102/9 88/109/9

v 567.4 225 1352.96
vt -2.0316 -19.5976
f 81/102/9 89/110/9 90/111/9

v 567.4 225 1048.06
vt -2.0316 -18.0731
f 91/112/9 90/111/9 89/110/9

v 567.4 225 1483.76
vt -2.0316 -20.2516
f 91/112/9 92/113/9 90/111/9

v 269.8 225 1048.06
f 93/10/9 92/113/9 91/112/9

v 269.8 225 1178.86
f 94/7/9 92/113/9 93/10/9

v 269.8 225 1483.76
vt -3.5196 -20.2516
f 92/113/9 94/7/9 95/114/9

v 63.6 305.6 1178.86
vt -4.5506 -18.7271
vn 0.364059 0.931376 -1.32439e-016
vt -3.44364 -20.2516
vt -3.44364 -18.7271
f 96/115/11 95/116/11 94/117/11

v 63.6 305.6 1483.76
vt -4.5506 -20.2516
f 95/116/11 96/115/11 97/118/11

v -50.6309 305.6 1178.86
vt -4.5506 -20.2516
vt -4.5506 -18.7271
f 98/9/1 97/119/1 96/120/1

v -250.569 305.6 1178.86
f 99/4/1 97/119/1 98/9/1

v -701.8 305.6 1178.86
f 100/1/1 97/119/1 99/4/1

v -872.895 305.6 1483.76
vt -9.23308 -20.2516
f 100/1/1 101/121/1 97/119/1

v -872.895 305.6 706.821
vt -9.23308 -16.3669
f 101/121/1 100/1/1 102/122/1

v -701.8 305.6 706.821
vt -8.3776 -16.3669
f 103/123/1 102/122/1 100/1/1

vt -8.3776 -16.3669
vn 2.32099e-016 0.927384 -0.37411
vt -9.23308 -15.2897
vt -9.23308 -16.3669
f 103/124/12 41/125/12 102/126/12

vt -8.3776 -15.2897
f 41/125/12 103/124/12 39/127/12

v 698.2 225 895.052
vt -1.3776 -17.308
f 104/128/9 87/108/9 86/107/9

v 698.2 225 1006.35
vt -1.3776 -17.8645
f 87/108/9 104/128/9 105/129/9

v 698.2 225 689.852
vt -1.3776 -16.282
f 106/130/9 85/106/9 84/105/9

v 698.2 225 801.152
vt -1.3776 -16.8385
f 85/106/9 106/130/9 107/131/9

v 1055.39 225 -561.603
vt 0.408368 -10.0248
f 63/82/9 80/101/9 108/132/9

v 1055.39 225 579.967
vt 0.408368 -15.7326
f 80/101/9 109/133/9 108/132/9

v 1130.89 225 1294.06
vt 0.785868 -19.3031
f 109/133/9 80/101/9 110/134/9

v 1130.89 225 579.967
vt 0.785868 -15.7326
f 109/133/9 110/134/9 111/135/9

v 1130.89 225 1058.01
vt 0.785868 -18.1228
f 111/135/9 110/134/9 112/136/9

v 1130.89 225 863.972
vt 0.785868 -17.1526
f 111/135/9 112/136/9 113/137/9

v 1157.69 225 1058.01
vt 0.919868 -18.1228
f 114/138/9 113/137/9 112/136/9

v 1157.69 225 863.972
vt 0.919868 -17.1526
f 113/137/9 114/138/9 115/139/9

v 1055.39 225 444.767
vt 0.408368 -15.0566
f 116/140/9 108/132/9 109/133/9

v 1130.89 225 -561.603
vt 0.785868 -10.0248
f 108/132/9 116/140/9 117/141/9

v 1130.89 225 444.767
vt 0.785868 -15.0566
f 117/141/9 116/140/9 118/142/9

v 1130.89 225 132.474
vt 0.785868 -13.4951
f 117/141/9 118/142/9 119/143/9

v 1130.89 225 -61.5601
vt 0.785868 -12.525
f 117/141/9 119/143/9 120/144/9

v 1168.29 225 132.474
vt 0.972868 -13.4951
f 121/145/9 120/144/9 119/143/9

v 1168.29 225 -61.5601
vt 0.972868 -12.525
f 120/144/9 121/145/9 122/146/9

v 1130.89 225 -755.637
vt 0.785868 -9.05459
f 55/74/9 63/82/9 123/147/9

v -610.6 225 105.416
vt -7.9216 -13.3598
f 50/69/9 39/3/9 124/148/9

v -610.6 225 195.556
vt -7.9216 -13.8106
f 124/148/9 39/3/9 125/149/9

v -571 225 507.021
f 126/6/9 125/149/9 39/3/9

v -571 225 195.556
vt -7.7236 -13.8106
f 125/149/9 126/6/9 127/150/9

v -571 225 105.416
vt -7.7236 -13.3598
f 50/69/9 124/148/9 128/151/9

v -571 225 -0
vt -7.7236 -12.8328
f 50/69/9 128/151/9 129/152/9

v -571 225 -180.4
vt -7.7236 -11.9308
f 50/69/9 129/152/9 130/153/9

v -492.4 225 -0
vt -7.3306 -12.8328
f 131/154/9 130/153/9 129/152/9

v -492.4 225 -180.4
vt -7.3306 -11.9308
f 130/153/9 131/154/9 132/155/9

v -872.895 225 -329.422
vt -9.23308 -11.1857
vn -0.13721 0.990542 4.82227e-018
f 133/156/13 47/66/9 48/67/9

v -872.895 225 -208.422
vt -9.23308 -11.7907
f 47/66/9 133/156/13 134/157/13

v -960.695 200.2 -329.422
vt -9.68925 -11.1857
vn -0.13721 0.990542 -0
vt -9.23308 -11.7907
vt -9.23308 -11.1857
f 135/158/14 134/159/13 133/160/13

v -960.695 200.2 -208.422
vt -9.68925 -11.7907
f 134/159/13 135/158/14 136/161/14

vt -9.67208 -11.1857
v -960.695 200.2 91.5785
vt -9.67208 -13.2907
vn -0.13721 0.990542 -0
vt -9.67208 -11.7907
f 135/162/14 137/163/15 136/164/14

v -960.695 200.2 212.578
vt -9.67208 -13.8957
f 135/162/14 138/165/15 137/163/15

v -1081.69 200.2 -329.422
vt -10.2771 -11.1857
f 139/166/1 138/165/15 135/162/14

v -1081.69 200.2 212.578
vt -10.2771 -13.8957
f 138/165/15 139/166/1 140/167/1

v -872.895 225 212.578
vt -9.23308 -13.8957
vn -0.13721 0.990542 4.82227e-018
vt -9.68925 -13.2907
vt -9.68925 -13.8957
f 141/168/16 137/169/15 138/170/15

v -872.895 225 91.5785
vt -9.23308 -13.2907
f 137/169/15 141/168/16 142/171/16

vt -9.23308 -13.2907
vt -9.23308 -13.8957
f 43/62/9 142/172/16 141/173/16

f 142/172/16 43/62/9 44/63/9

vt -9.67208 -13.2907
v -960.695 398.6 -208.422
vt -8.68008 -11.7907
vt -9.67208 -11.7907
f 137/174/3 143/175/3 136/176/3

v -960.695 398.6 91.5785
vt -8.68008 -13.2907
f 143/175/3 137/174/3 144/177/3

v -1081.69 398.6 212.578
vt -5.76225 -21.6027
vt -3.65725 -20.9977
vt -5.15725 -20.9977
f 145/178/8 143/179/8 144/180/8

v -1081.69 398.6 -208.422
vt -3.65725 -21.6027
f 143/179/8 145/178/8 146/181/8

vt -10.2771 -9.58866
v -849.895 398.6 -329.422
vt -9.11808 -10.1937
vt -9.67208 -9.58866
f 146/182/8 147/183/8 143/184/8

v -1081.69 398.6 -329.422
vt -10.2771 -10.1937
f 147/183/8 146/182/8 148/185/8

v -849.895 398.6 -208.422
vt -9.11808 -9.58866
f 143/184/8 147/183/8 149/186/8

v -849.895 398.6 212.578
vt -5.76225 -20.4437
f 145/178/8 144/180/8 150/187/8

v -849.895 398.6 91.5785
vt -5.15725 -20.4437
f 150/187/8 144/180/8 151/188/8

v -872.895 225 -160.822
vt -9.23308 -12.0287
f 152/189/9 45/64/9 46/65/9

v -872.895 225 43.9785
vt -9.23308 -13.0527
f 45/64/9 152/189/9 153/190/9

g Mesh7 Model

v 0 225 -0
vt -4.8686 -12.8328
v -183.063 225 -180.4
vt -5.78392 -11.9308
v -183.063 225 -0
vt -5.78392 -12.8328
f 154/191/1 155/192/1 156/193/1

v 0 225 -180.4
vt -4.8686 -11.9308
f 155/192/1 154/191/1 157/194/1

v 0 0 -180.4
vt -23.738 -22.4367
vn 0 0 -1
vt -22.8227 -21.3117
vt -23.738 -21.3117
f 158/195/17 155/196/17 157/197/17

v -183.063 0 -180.4
vt -22.8227 -22.4367
f 155/196/17 158/195/17 159/198/17

g Mesh8 Model

v 410.723 225 -478.335
v 166.923 225 -651.935
v 166.923 225 -478.335
f 160/99/1 161/98/1 162/100/1

v 410.723 225 -651.935
f 161/98/1 160/99/1 163/97/1

g Mesh9 Model

v 1.10886e-012 397.9 -755.637
vt -4.8686 -20.9657
v -183.063 397.9 -651.935
vt -5.78392 -20.4472
v -183.063 397.9 -755.637
vt -5.78392 -20.9657
f 164/199/8 165/200/8 166/201/8

v 1.10886e-012 397.9 -651.935
vt -4.8686 -20.4472
f 165/200/8 164/199/8 167/202/8

g Mesh10 Model

v 410.723 397.9 -651.935
vt -2.81499 -20.4472
v 166.923 397.9 -478.335
vt -4.03399 -19.5792
v 166.923 397.9 -651.935
vt -4.03399 -20.4472
f 168/203/8 169/204/8 170/205/8

v 410.723 397.9 -478.335
vt -2.81499 -19.5792
f 169/204/8 168/203/8 171/206/8

g Mesh11 Model

v 829 570.8 1178.86
v 567.4 570.8 1048.06
v 567.4 570.8 1178.86
f 172/109/1 173/112/1 174/110/1

v 698.2 570.8 1048.06
vt -1.3776 -18.0731
f 173/112/1 172/109/1 175/207/1

v 698.2 570.8 579.967
vt -1.3776 -15.7326
f 175/207/1 172/109/1 176/208/1

v 829 570.8 444.767
f 176/208/1 172/109/1 177/88/1

v 829 570.8 579.967
f 177/88/1 172/109/1 178/104/1

v 904.5 570.8 579.967
f 177/88/1 178/104/1 179/103/1

v 904.5 570.8 444.767
f 177/88/1 179/103/1 180/83/1

g Mesh12 Model

v 1838.96 570.8 2160.96
vt 4.3262 -23.6376
vn -1.25573e-016 1 -1.37244e-033
v 2564.8 570.8 1038.83
vt 7.95539 -18.0269
v 1838.96 570.8 -1499.74
vt 4.3262 -5.33409
f 181/209/18 182/210/18 183/211/18

v 4046.56 570.8 4692.09
vt 15.3642 -36.2932
f 182/210/18 181/209/18 184/212/18

v -1541.14 570.8 2160.96
vt -12.5743 -23.6376
vn -1.79599e-033 1 -1.09522e-016
vt 4.3262 -23.6376
f 185/213/19 184/212/19 181/214/19

v -5295.64 570.8 4692.09
vt -31.3468 -36.2932
f 184/212/19 185/213/19 186/215/19

vn 7.38351e-017 1 -1.35569e-033
v -5295.64 570.8 -4562.41
vt -31.3468 9.97928
f 185/213/20 187/216/20 186/215/20

v -1541.14 570.8 -1499.74
vt -12.5743 -5.33409
f 187/216/20 185/213/20 188/217/20

v -872.895 570.8 1483.76
vt -9.23308 -20.2516
vn -4.14839e-016 1 1.70047e-033
f 189/218/21 188/217/21 185/213/21

v -872.895 570.8 -1117.83
vt -9.23308 -7.24362
f 188/217/21 189/218/21 190/219/21

v -872.895 570.8 260.178
vt -9.23308 -14.1337
f 190/219/21 189/218/21 191/220/21

v -872.895 570.8 43.9785
vt -9.23308 -13.0527
f 190/219/21 191/220/21 192/221/21

v -849.895 570.8 260.178
f 193/61/1 192/190/1 191/59/1

v -849.895 570.8 43.9785
f 192/190/1 193/61/1 194/64/1

v -872.895 570.8 -160.822
vt -9.23308 -12.0287
f 190/219/21 192/221/21 195/222/21

v -872.895 570.8 -377.022
vt -9.23308 -10.9477
f 190/219/21 195/222/21 196/223/21

v -849.895 570.8 -160.822
f 197/65/1 196/71/1 195/189/1

v -849.895 570.8 -377.022
f 196/71/1 197/65/1 198/68/1

vt -9.23308 -7.24362
vn -5.90977e-033 1 -7.2587e-016
vt 4.3262 -5.33409
vt -12.5743 -5.33409
f 190/224/22 183/225/22 188/226/22

v 1130.89 570.8 -1117.83
vt 0.785868 -7.24362
f 183/225/22 190/224/22 199/227/22

vt 0.785868 -7.24362
vn 3.47036e-016 1 1.99759e-017
v 1168.29 570.8 -61.5601
vt 0.972868 -12.525
vt 4.3262 -5.33409
f 199/228/23 200/229/23 183/230/23

v 1130.89 570.8 -755.637
vt 0.785868 -9.05459
f 201/231/23 200/229/23 199/228/23

v 1130.89 570.8 -561.603
vt 0.785868 -10.0248
f 202/232/23 200/229/23 201/231/23

v 1130.89 570.8 -61.5601
vt 0.785868 -12.525
f 200/229/23 202/232/23 203/233/23

v 1055.39 570.8 -755.637
f 204/82/1 202/141/1 201/147/1

v 1055.39 570.8 -561.603
f 202/141/1 204/82/1 205/132/1

vt 4.3262 -23.6376
f 183/230/23 200/229/23 181/234/23

v 1168.29 570.8 132.474
vt 0.972868 -13.4951
f 206/235/23 181/234/23 200/229/23

v 1157.69 570.8 863.972
vt 0.919868 -17.1526
f 207/236/23 181/234/23 206/235/23

v 1157.69 570.8 1058.01
vt 0.919868 -18.1228
f 208/237/23 181/234/23 207/236/23

v 1130.89 570.8 1058.01
vt 0.785868 -18.1228
f 209/238/23 181/234/23 208/237/23

v 1130.89 570.8 1294.06
vt 0.785868 -19.3031
f 181/234/23 209/238/23 210/239/23

vn -3.69596e-016 1 6.21651e-016
v 979.947 570.8 1352.96
vt 0.0311321 -19.5976
f 181/214/24 210/239/24 211/240/24

vt 0.785868 -19.3031
vn -6.12165e-016 1 2.19228e-031
v 979.947 570.8 1294.06
vt 0.0311321 -19.3031
vt 0.0311321 -19.5976
f 210/241/25 212/242/25 211/243/25

vn 5.42362e-017 1 1.71063e-016
vt 0.0311321 -19.5976
v 567.4 570.8 1483.76
vt -2.0316 -20.2516
f 181/234/26 211/244/26 213/245/26

vt 0.0311321 -19.5976
v 567.4 570.8 1352.96
vt -2.0316 -19.5976
vt -2.0316 -20.2516
f 211/246/1 214/247/1 213/248/1

vn 9.85886e-018 1 3.36733e-016
f 189/121/27 181/214/27 213/113/27

f 181/214/27 189/121/27 185/213/27

v 1130.89 570.8 132.474
vt 0.785868 -13.4951
f 215/249/23 207/236/23 206/235/23

v 1130.89 570.8 444.767
vt 0.785868 -15.0566
f 216/250/23 207/236/23 215/249/23

v 1130.89 570.8 579.967
vt 0.785868 -15.7326
f 217/251/23 207/236/23 216/250/23

v 1130.89 570.8 863.972
vt 0.785868 -17.1526
f 207/236/23 217/251/23 218/252/23

v 1055.39 570.8 444.767
vn 0 1 6.83466e-016
f 219/140/28 217/135/28 216/142/28

v 1055.39 570.8 579.967
f 217/135/28 219/140/28 220/133/28

v 4046.56 570.8 -4562.41
vt 15.3642 9.97928
vn -1.63557e-033 1 9.05137e-017
vt 4.3262 -5.33409
f 221/253/29 188/217/29 183/254/29

f 188/217/29 221/253/29 187/216/29

v 2564.8 570.8 1018.83
vt 7.95539 -17.9269
f 183/211/18 222/255/18 221/253/18

f 222/255/18 183/211/18 182/210/18

v 2614.8 570.8 1038.83
vt 8.20539 -18.0269
vt 7.95539 -17.9269
vt 7.95539 -18.0269
f 223/256/1 222/257/1 182/258/1

v 2614.8 570.8 1018.83
vt 8.20539 -17.9269
f 222/257/1 223/256/1 224/259/1

vt 8.20539 -18.0269
vt 8.20539 -17.9269
f 223/260/18 184/212/18 224/261/18

f 182/210/18 184/212/18 223/260/18

f 221/253/18 224/261/18 184/212/18

f 221/253/18 222/255/18 224/261/18

